STARTFONT 2.1
FONT -hell-Monobook-Bold-R-Normal--16-160-72-72-M-80-ISO10646-1
SIZE 16 72 72
FONTBOUNDINGBOX 8 16 0 -4
STARTPROPERTIES 23
FOUNDRY "hell"
FAMILY_NAME "Monobook"
WEIGHT_NAME "Bold"
SLANT "R"
SETWIDTH_NAME "Normal"
ADD_STYLE_NAME ""
PIXEL_SIZE 16
POINT_SIZE 160
RESOLUTION_X 72
RESOLUTION_Y 72
SPACING "M"
AVERAGE_WIDTH 80
CHARSET_REGISTRY "ISO10646"
CHARSET_ENCODING "1"
MIN_SPACE 0
COPYRIGHT "Copyright © 2008, dclxvi"
WEIGHT 10
X_HEIGHT 7
QUAD_WIDTH 8
DEFAULT_CHAR 0
FONT_DESCENT 4
FONT_ASCENT 12
_GBDFED_INFO "Edited with gbdfed 1.6."
ENDPROPERTIES
CHARS 754
STARTCHAR char0
ENCODING 0
SWIDTH 500 0
DWIDTH 8 0
BBX 7 10 0 0
BITMAP
EE
C6
00
C6
C6
C6
C6
00
C6
EE
ENDCHAR
STARTCHAR space
ENCODING 32
SWIDTH 500 0
DWIDTH 8 0
BBX 0 0 0 0
BITMAP
ENDCHAR
STARTCHAR exclam
ENCODING 33
SWIDTH 500 0
DWIDTH 8 0
BBX 2 10 3 0
BITMAP
C0
C0
C0
C0
C0
C0
C0
00
C0
C0
ENDCHAR
STARTCHAR quotedbl
ENCODING 34
SWIDTH 500 0
DWIDTH 8 0
BBX 7 3 0 8
BITMAP
EE
66
66
ENDCHAR
STARTCHAR numbersign
ENCODING 35
SWIDTH 500 0
DWIDTH 8 0
BBX 7 10 0 0
BITMAP
6C
6C
6C
FE
6C
6C
FE
6C
6C
6C
ENDCHAR
STARTCHAR dollar
ENCODING 36
SWIDTH 500 0
DWIDTH 8 0
BBX 7 13 0 -2
BITMAP
10
10
FE
D6
D0
D0
FE
16
16
D6
FE
10
10
ENDCHAR
STARTCHAR percent
ENCODING 37
SWIDTH 500 0
DWIDTH 8 0
BBX 8 10 0 0
BITMAP
F6
D6
FC
0C
18
18
30
3F
6B
6F
ENDCHAR
STARTCHAR ampersand
ENCODING 38
SWIDTH 500 0
DWIDTH 8 0
BBX 7 12 0 -2
BITMAP
7C
6C
6C
FC
CC
CC
CC
CC
CE
FC
0C
0E
ENDCHAR
STARTCHAR quotesingle
ENCODING 39
SWIDTH 500 0
DWIDTH 8 0
BBX 3 3 2 8
BITMAP
E0
60
60
ENDCHAR
STARTCHAR parenleft
ENCODING 40
SWIDTH 500 0
DWIDTH 8 0
BBX 4 10 2 0
BITMAP
30
60
C0
C0
C0
C0
C0
C0
60
30
ENDCHAR
STARTCHAR parenright
ENCODING 41
SWIDTH 500 0
DWIDTH 8 0
BBX 4 10 2 0
BITMAP
C0
60
30
30
30
30
30
30
60
C0
ENDCHAR
STARTCHAR asterisk
ENCODING 42
SWIDTH 500 0
DWIDTH 8 0
BBX 7 5 0 2
BITMAP
6C
38
FE
38
6C
ENDCHAR
STARTCHAR plus
ENCODING 43
SWIDTH 500 0
DWIDTH 8 0
BBX 6 5 1 2
BITMAP
30
30
FC
30
30
ENDCHAR
STARTCHAR comma
ENCODING 44
SWIDTH 500 0
DWIDTH 8 0
BBX 3 3 2 -1
BITMAP
E0
60
60
ENDCHAR
STARTCHAR hyphen
ENCODING 45
SWIDTH 500 0
DWIDTH 8 0
BBX 7 1 0 4
BITMAP
FE
ENDCHAR
STARTCHAR period
ENCODING 46
SWIDTH 500 0
DWIDTH 8 0
BBX 2 2 3 0
BITMAP
C0
C0
ENDCHAR
STARTCHAR slash
ENCODING 47
SWIDTH 500 0
DWIDTH 8 0
BBX 6 10 1 0
BITMAP
0C
0C
18
18
30
30
60
60
C0
C0
ENDCHAR
STARTCHAR zero
ENCODING 48
SWIDTH 500 0
DWIDTH 8 0
BBX 7 10 0 0
BITMAP
FE
C6
C6
CE
DE
F6
E6
C6
C6
FE
ENDCHAR
STARTCHAR one
ENCODING 49
SWIDTH 500 0
DWIDTH 8 0
BBX 6 10 1 0
BITMAP
70
B0
30
30
30
30
30
34
34
FC
ENDCHAR
STARTCHAR two
ENCODING 50
SWIDTH 500 0
DWIDTH 8 0
BBX 7 10 0 0
BITMAP
FE
06
06
06
FE
C0
C0
C0
C0
FE
ENDCHAR
STARTCHAR three
ENCODING 51
SWIDTH 500 0
DWIDTH 8 0
BBX 7 10 0 0
BITMAP
FE
06
06
06
3C
06
06
06
06
FE
ENDCHAR
STARTCHAR four
ENCODING 52
SWIDTH 500 0
DWIDTH 8 0
BBX 7 10 0 0
BITMAP
C0
CC
CC
CC
CC
CC
FE
0C
0C
0C
ENDCHAR
STARTCHAR five
ENCODING 53
SWIDTH 500 0
DWIDTH 8 0
BBX 7 10 0 0
BITMAP
FE
C0
C0
C0
FE
06
06
06
86
7E
ENDCHAR
STARTCHAR six
ENCODING 54
SWIDTH 500 0
DWIDTH 8 0
BBX 7 10 0 0
BITMAP
F0
C0
C0
C0
FE
C6
C6
C6
C6
FE
ENDCHAR
STARTCHAR seven
ENCODING 55
SWIDTH 500 0
DWIDTH 8 0
BBX 7 10 0 0
BITMAP
FE
06
06
0C
18
30
30
30
30
30
ENDCHAR
STARTCHAR eight
ENCODING 56
SWIDTH 500 0
DWIDTH 8 0
BBX 7 10 0 0
BITMAP
7C
6C
6C
FE
C6
C6
C6
C6
C6
FE
ENDCHAR
STARTCHAR nine
ENCODING 57
SWIDTH 500 0
DWIDTH 8 0
BBX 7 10 0 0
BITMAP
FE
C6
C6
C6
C6
FE
06
06
06
1E
ENDCHAR
STARTCHAR colon
ENCODING 58
SWIDTH 500 0
DWIDTH 8 0
BBX 2 7 3 0
BITMAP
C0
C0
00
00
00
C0
C0
ENDCHAR
STARTCHAR semicolon
ENCODING 59
SWIDTH 500 0
DWIDTH 8 0
BBX 3 8 2 -1
BITMAP
60
60
00
00
00
E0
60
60
ENDCHAR
STARTCHAR less
ENCODING 60
SWIDTH 500 0
DWIDTH 8 0
BBX 6 9 1 0
BITMAP
0C
18
30
60
C0
60
30
18
0C
ENDCHAR
STARTCHAR equal
ENCODING 61
SWIDTH 500 0
DWIDTH 8 0
BBX 7 4 0 3
BITMAP
FE
00
00
FE
ENDCHAR
STARTCHAR greater
ENCODING 62
SWIDTH 500 0
DWIDTH 8 0
BBX 6 9 1 0
BITMAP
C0
60
30
18
0C
18
30
60
C0
ENDCHAR
STARTCHAR question
ENCODING 63
SWIDTH 500 0
DWIDTH 8 0
BBX 7 10 0 0
BITMAP
FE
C6
06
06
0C
18
18
00
18
18
ENDCHAR
STARTCHAR at
ENCODING 64
SWIDTH 500 0
DWIDTH 8 0
BBX 7 10 0 0
BITMAP
FE
C6
DE
D6
D6
D6
D6
DE
C0
FE
ENDCHAR
STARTCHAR A
ENCODING 65
SWIDTH 500 0
DWIDTH 8 0
BBX 7 10 0 0
BITMAP
1E
26
46
C6
C6
FE
C6
C6
C6
C6
ENDCHAR
STARTCHAR B
ENCODING 66
SWIDTH 500 0
DWIDTH 8 0
BBX 7 10 0 0
BITMAP
FE
C6
C6
C6
FC
C6
C6
C6
C6
FE
ENDCHAR
STARTCHAR C
ENCODING 67
SWIDTH 500 0
DWIDTH 8 0
BBX 7 10 0 0
BITMAP
FE
C6
C0
C0
C0
C0
C0
C0
C6
FE
ENDCHAR
STARTCHAR D
ENCODING 68
SWIDTH 500 0
DWIDTH 8 0
BBX 7 10 0 0
BITMAP
F0
D8
CC
C6
C6
C6
C6
C6
C6
FC
ENDCHAR
STARTCHAR E
ENCODING 69
SWIDTH 500 0
DWIDTH 8 0
BBX 7 10 0 0
BITMAP
FE
C0
C0
C0
FC
C0
C0
C0
C0
FE
ENDCHAR
STARTCHAR F
ENCODING 70
SWIDTH 500 0
DWIDTH 8 0
BBX 7 10 0 0
BITMAP
FE
C0
C0
C0
FC
C0
C0
C0
C0
C0
ENDCHAR
STARTCHAR G
ENCODING 71
SWIDTH 500 0
DWIDTH 8 0
BBX 7 10 0 0
BITMAP
FE
C6
C0
C0
C0
CE
C6
C6
C6
FE
ENDCHAR
STARTCHAR H
ENCODING 72
SWIDTH 500 0
DWIDTH 8 0
BBX 7 10 0 0
BITMAP
C6
C6
C6
C6
FE
C6
C6
C6
C6
C6
ENDCHAR
STARTCHAR I
ENCODING 73
SWIDTH 500 0
DWIDTH 8 0
BBX 5 10 2 0
BITMAP
F0
60
60
60
60
60
60
68
68
F8
ENDCHAR
STARTCHAR J
ENCODING 74
SWIDTH 500 0
DWIDTH 8 0
BBX 7 10 0 0
BITMAP
1E
0C
0C
0C
0C
0C
0C
0C
CC
FC
ENDCHAR
STARTCHAR K
ENCODING 75
SWIDTH 500 0
DWIDTH 8 0
BBX 7 10 0 0
BITMAP
C6
CC
D8
F0
E0
FE
C6
C6
C6
C6
ENDCHAR
STARTCHAR L
ENCODING 76
SWIDTH 500 0
DWIDTH 8 0
BBX 7 10 0 0
BITMAP
C0
C0
C0
C0
C0
C0
C0
C0
C6
FE
ENDCHAR
STARTCHAR M
ENCODING 77
SWIDTH 500 0
DWIDTH 8 0
BBX 7 10 0 0
BITMAP
FE
D6
D6
D6
D6
D6
D6
C6
C6
C6
ENDCHAR
STARTCHAR N
ENCODING 78
SWIDTH 500 0
DWIDTH 8 0
BBX 7 10 0 0
BITMAP
CE
D6
E6
C6
C6
C6
C6
C6
C6
C6
ENDCHAR
STARTCHAR O
ENCODING 79
SWIDTH 500 0
DWIDTH 8 0
BBX 7 10 0 0
BITMAP
FE
C6
C6
C6
C6
C6
C6
C6
C6
FE
ENDCHAR
STARTCHAR P
ENCODING 80
SWIDTH 500 0
DWIDTH 8 0
BBX 7 10 0 0
BITMAP
FE
C6
C6
C6
C6
FE
C0
C0
C0
C0
ENDCHAR
STARTCHAR Q
ENCODING 81
SWIDTH 500 0
DWIDTH 8 0
BBX 7 12 0 -2
BITMAP
FE
C6
C6
C6
C6
C6
C6
C6
DE
FE
18
1E
ENDCHAR
STARTCHAR R
ENCODING 82
SWIDTH 500 0
DWIDTH 8 0
BBX 7 10 0 0
BITMAP
FE
C6
C6
C6
C6
FE
CC
CC
C6
C6
ENDCHAR
STARTCHAR S
ENCODING 83
SWIDTH 500 0
DWIDTH 8 0
BBX 7 10 0 0
BITMAP
FE
C6
C0
C0
FE
06
06
C6
C6
FE
ENDCHAR
STARTCHAR T
ENCODING 84
SWIDTH 500 0
DWIDTH 8 0
BBX 8 10 0 0
BITMAP
FF
18
18
18
18
18
18
18
18
18
ENDCHAR
STARTCHAR U
ENCODING 85
SWIDTH 500 0
DWIDTH 8 0
BBX 7 10 0 0
BITMAP
C6
C6
C6
C6
C6
C6
C6
CE
D6
E6
ENDCHAR
STARTCHAR V
ENCODING 86
SWIDTH 500 0
DWIDTH 8 0
BBX 7 10 0 0
BITMAP
C6
C6
C6
C6
C6
C6
C6
CC
D8
F0
ENDCHAR
STARTCHAR W
ENCODING 87
SWIDTH 500 0
DWIDTH 8 0
BBX 7 10 0 0
BITMAP
C6
C6
C6
C6
D6
D6
D6
D6
D6
FE
ENDCHAR
STARTCHAR X
ENCODING 88
SWIDTH 500 0
DWIDTH 8 0
BBX 7 10 0 0
BITMAP
C6
C6
C6
6C
38
38
6C
C6
C6
C6
ENDCHAR
STARTCHAR afii10037
ENCODING 89
SWIDTH 500 0
DWIDTH 8 0
BBX 7 10 0 0
BITMAP
C6
C6
C6
C6
C6
FE
06
06
06
7E
ENDCHAR
STARTCHAR Z
ENCODING 90
SWIDTH 500 0
DWIDTH 8 0
BBX 7 10 0 0
BITMAP
FE
06
06
0C
18
30
60
C0
C0
FE
ENDCHAR
STARTCHAR bracketleft
ENCODING 91
SWIDTH 500 0
DWIDTH 8 0
BBX 4 10 2 0
BITMAP
F0
C0
C0
C0
C0
C0
C0
C0
C0
F0
ENDCHAR
STARTCHAR backslash
ENCODING 92
SWIDTH 500 0
DWIDTH 8 0
BBX 6 10 1 0
BITMAP
C0
C0
60
60
30
30
18
18
0C
0C
ENDCHAR
STARTCHAR bracketright
ENCODING 93
SWIDTH 500 0
DWIDTH 8 0
BBX 4 10 2 0
BITMAP
F0
30
30
30
30
30
30
30
30
F0
ENDCHAR
STARTCHAR asciicircum
ENCODING 94
SWIDTH 500 0
DWIDTH 8 0
BBX 6 3 1 8
BITMAP
30
78
CC
ENDCHAR
STARTCHAR underscore
ENCODING 95
SWIDTH 500 0
DWIDTH 8 0
BBX 7 1 0 -2
BITMAP
FE
ENDCHAR
STARTCHAR grave
ENCODING 96
SWIDTH 500 0
DWIDTH 8 0
BBX 3 3 2 9
BITMAP
C0
C0
E0
ENDCHAR
STARTCHAR a
ENCODING 97
SWIDTH 500 0
DWIDTH 8 0
BBX 7 7 0 0
BITMAP
7E
06
FE
C6
C6
C6
FE
ENDCHAR
STARTCHAR b
ENCODING 98
SWIDTH 500 0
DWIDTH 8 0
BBX 7 10 0 0
BITMAP
C0
C0
C0
FE
C6
C6
C6
C6
C6
FE
ENDCHAR
STARTCHAR c
ENCODING 99
SWIDTH 500 0
DWIDTH 8 0
BBX 7 7 0 0
BITMAP
FE
C0
C0
C0
C0
C0
FE
ENDCHAR
STARTCHAR d
ENCODING 100
SWIDTH 500 0
DWIDTH 8 0
BBX 7 10 0 0
BITMAP
06
06
06
FE
C6
C6
C6
C6
C6
FE
ENDCHAR
STARTCHAR e
ENCODING 101
SWIDTH 500 0
DWIDTH 8 0
BBX 7 7 0 0
BITMAP
FE
C6
C6
FE
C0
C0
FC
ENDCHAR
STARTCHAR f
ENCODING 102
SWIDTH 500 0
DWIDTH 8 0
BBX 6 10 1 0
BITMAP
7C
60
60
F8
60
60
60
60
60
60
ENDCHAR
STARTCHAR g
ENCODING 103
SWIDTH 500 0
DWIDTH 8 0
BBX 7 10 0 -3
BITMAP
FE
C6
C6
C6
C6
C6
FE
06
06
7E
ENDCHAR
STARTCHAR h
ENCODING 104
SWIDTH 500 0
DWIDTH 8 0
BBX 7 10 0 0
BITMAP
C0
C0
C0
FE
C6
C6
C6
C6
C6
C6
ENDCHAR
STARTCHAR i
ENCODING 105
SWIDTH 500 0
DWIDTH 8 0
BBX 5 10 2 0
BITMAP
60
60
00
E0
60
60
60
68
68
F8
ENDCHAR
STARTCHAR j
ENCODING 106
SWIDTH 500 0
DWIDTH 8 0
BBX 6 13 1 -3
BITMAP
0C
0C
00
1C
0C
0C
0C
0C
0C
0C
0C
CC
FC
ENDCHAR
STARTCHAR k
ENCODING 107
SWIDTH 500 0
DWIDTH 8 0
BBX 7 10 0 0
BITMAP
C0
C0
C0
C6
CC
D8
FE
C6
C6
C6
ENDCHAR
STARTCHAR l
ENCODING 108
SWIDTH 500 0
DWIDTH 8 0
BBX 5 10 2 0
BITMAP
E0
60
60
60
60
60
60
68
68
F8
ENDCHAR
STARTCHAR m
ENCODING 109
SWIDTH 500 0
DWIDTH 8 0
BBX 7 7 0 0
BITMAP
FE
D6
D6
D6
D6
C6
C6
ENDCHAR
STARTCHAR n
ENCODING 110
SWIDTH 500 0
DWIDTH 8 0
BBX 7 7 0 0
BITMAP
DE
E6
C6
C6
C6
C6
C6
ENDCHAR
STARTCHAR o
ENCODING 111
SWIDTH 500 0
DWIDTH 8 0
BBX 7 7 0 0
BITMAP
FE
C6
C6
C6
C6
C6
FE
ENDCHAR
STARTCHAR p
ENCODING 112
SWIDTH 500 0
DWIDTH 8 0
BBX 7 10 0 -3
BITMAP
FE
C6
C6
C6
C6
C6
FE
C0
C0
C0
ENDCHAR
STARTCHAR q
ENCODING 113
SWIDTH 500 0
DWIDTH 8 0
BBX 7 10 0 -3
BITMAP
FE
C6
C6
C6
C6
C6
FE
06
06
06
ENDCHAR
STARTCHAR r
ENCODING 114
SWIDTH 500 0
DWIDTH 8 0
BBX 7 7 0 0
BITMAP
FE
C6
C0
C0
C0
C0
C0
ENDCHAR
STARTCHAR s
ENCODING 115
SWIDTH 500 0
DWIDTH 8 0
BBX 7 7 0 0
BITMAP
FE
C0
C0
FE
06
06
FE
ENDCHAR
STARTCHAR t
ENCODING 116
SWIDTH 500 0
DWIDTH 8 0
BBX 6 10 1 0
BITMAP
60
60
60
F8
60
60
60
60
60
7C
ENDCHAR
STARTCHAR u
ENCODING 117
SWIDTH 500 0
DWIDTH 8 0
BBX 7 7 0 0
BITMAP
C6
C6
C6
C6
C6
CE
F6
ENDCHAR
STARTCHAR v
ENCODING 118
SWIDTH 500 0
DWIDTH 8 0
BBX 7 7 0 0
BITMAP
C6
C6
C6
C6
CC
F8
F0
ENDCHAR
STARTCHAR w
ENCODING 119
SWIDTH 500 0
DWIDTH 8 0
BBX 7 7 0 0
BITMAP
C6
C6
D6
D6
D6
D6
FE
ENDCHAR
STARTCHAR x
ENCODING 120
SWIDTH 500 0
DWIDTH 8 0
BBX 7 7 0 0
BITMAP
C6
C6
6C
38
6C
C6
C6
ENDCHAR
STARTCHAR y
ENCODING 121
SWIDTH 500 0
DWIDTH 8 0
BBX 7 10 0 -3
BITMAP
C6
C6
C6
C6
C6
C6
FE
06
06
7E
ENDCHAR
STARTCHAR z
ENCODING 122
SWIDTH 500 0
DWIDTH 8 0
BBX 7 7 0 0
BITMAP
FE
0C
18
30
60
C0
FE
ENDCHAR
STARTCHAR braceleft
ENCODING 123
SWIDTH 500 0
DWIDTH 8 0
BBX 5 10 1 0
BITMAP
78
60
60
60
E0
60
60
60
60
78
ENDCHAR
STARTCHAR bar
ENCODING 124
SWIDTH 500 0
DWIDTH 8 0
BBX 2 10 3 0
BITMAP
C0
C0
C0
C0
00
00
C0
C0
C0
C0
ENDCHAR
STARTCHAR braceright
ENCODING 125
SWIDTH 500 0
DWIDTH 8 0
BBX 5 10 1 0
BITMAP
F0
30
30
30
38
30
30
30
30
F0
ENDCHAR
STARTCHAR asciitilde
ENCODING 126
SWIDTH 500 0
DWIDTH 8 0
BBX 8 3 0 8
BITMAP
FB
DB
DF
ENDCHAR
STARTCHAR nbspace
ENCODING 160
SWIDTH 500 0
DWIDTH 8 0
BBX 0 0 0 0
BITMAP
ENDCHAR
STARTCHAR exclamdown
ENCODING 161
SWIDTH 500 0
DWIDTH 8 0
BBX 2 10 3 0
BITMAP
C0
C0
00
C0
C0
C0
C0
C0
C0
C0
ENDCHAR
STARTCHAR cent
ENCODING 162
SWIDTH 500 0
DWIDTH 8 0
BBX 7 11 0 -2
BITMAP
10
10
FE
D0
D0
D0
D0
D0
FE
10
10
ENDCHAR
STARTCHAR sterling
ENCODING 163
SWIDTH 500 0
DWIDTH 8 0
BBX 7 10 0 0
BITMAP
3C
6C
60
60
F8
60
60
60
66
FE
ENDCHAR
STARTCHAR currency
ENCODING 164
SWIDTH 500 0
DWIDTH 8 0
BBX 6 7 1 1
BITMAP
CC
78
CC
CC
CC
78
CC
ENDCHAR
STARTCHAR yen
ENCODING 165
SWIDTH 500 0
DWIDTH 8 0
BBX 8 10 0 0
BITMAP
C3
C3
66
3C
18
7E
18
7E
18
18
ENDCHAR
STARTCHAR brokenbar
ENCODING 166
SWIDTH 500 0
DWIDTH 8 0
BBX 2 10 3 0
BITMAP
C0
C0
C0
C0
00
00
C0
C0
C0
C0
ENDCHAR
STARTCHAR section
ENCODING 167
SWIDTH 500 0
DWIDTH 8 0
BBX 6 12 1 -1
BITMAP
FC
CC
C0
FC
CC
CC
CC
CC
FC
0C
CC
FC
ENDCHAR
STARTCHAR dieresis
ENCODING 168
SWIDTH 500 0
DWIDTH 8 0
BBX 5 2 1 10
BITMAP
D8
D8
ENDCHAR
STARTCHAR copyright
ENCODING 169
SWIDTH 500 0
DWIDTH 8 0
BBX 8 9 0 0
BITMAP
7E
81
BD
A1
A1
A1
BD
81
7E
ENDCHAR
STARTCHAR ordfeminine
ENCODING 170
SWIDTH 500 0
DWIDTH 8 0
BBX 6 7 1 4
BITMAP
7C
0C
FC
CC
FC
00
FC
ENDCHAR
STARTCHAR guillemotleft
ENCODING 171
SWIDTH 500 0
DWIDTH 8 0
BBX 8 7 0 0
BITMAP
1B
36
6C
D8
6C
36
1B
ENDCHAR
STARTCHAR logicalnot
ENCODING 172
SWIDTH 500 0
DWIDTH 8 0
BBX 7 4 0 3
BITMAP
FE
06
06
06
ENDCHAR
STARTCHAR softhyphen
ENCODING 173
SWIDTH 500 0
DWIDTH 8 0
BBX 5 1 1 4
BITMAP
F8
ENDCHAR
STARTCHAR registered
ENCODING 174
SWIDTH 500 0
DWIDTH 8 0
BBX 8 9 0 0
BITMAP
7E
81
BD
A5
BD
A9
A5
81
7E
ENDCHAR
STARTCHAR macron
ENCODING 175
SWIDTH 500 0
DWIDTH 8 0
BBX 5 1 1 11
BITMAP
F8
ENDCHAR
STARTCHAR degree
ENCODING 176
SWIDTH 500 0
DWIDTH 8 0
BBX 5 4 1 7
BITMAP
F8
D8
D8
F8
ENDCHAR
STARTCHAR plusminus
ENCODING 177
SWIDTH 500 0
DWIDTH 8 0
BBX 6 7 1 0
BITMAP
30
30
FC
30
30
00
FC
ENDCHAR
STARTCHAR twosuperior
ENCODING 178
SWIDTH 500 0
DWIDTH 8 0
BBX 5 5 1 6
BITMAP
F8
18
F8
C0
F8
ENDCHAR
STARTCHAR threesuperior
ENCODING 179
SWIDTH 500 0
DWIDTH 8 0
BBX 5 5 1 6
BITMAP
F8
18
70
18
F8
ENDCHAR
STARTCHAR acute
ENCODING 180
SWIDTH 500 0
DWIDTH 8 0
BBX 3 2 2 10
BITMAP
60
C0
ENDCHAR
STARTCHAR mu
ENCODING 181
SWIDTH 500 0
DWIDTH 8 0
BBX 7 10 0 -3
BITMAP
C6
C6
C6
C6
C6
CE
F6
C0
C0
C0
ENDCHAR
STARTCHAR paragraph
ENCODING 182
SWIDTH 500 0
DWIDTH 8 0
BBX 7 10 0 0
BITMAP
FE
D6
D6
D6
D6
F6
16
16
16
16
ENDCHAR
STARTCHAR periodcentered
ENCODING 183
SWIDTH 500 0
DWIDTH 8 0
BBX 2 2 3 3
BITMAP
C0
C0
ENDCHAR
STARTCHAR cedilla
ENCODING 184
SWIDTH 500 0
DWIDTH 8 0
BBX 3 3 1 -3
BITMAP
E0
60
60
ENDCHAR
STARTCHAR onesuperior
ENCODING 185
SWIDTH 500 0
DWIDTH 8 0
BBX 4 5 2 6
BITMAP
E0
60
60
70
F0
ENDCHAR
STARTCHAR ordmasculine
ENCODING 186
SWIDTH 500 0
DWIDTH 8 0
BBX 6 7 1 4
BITMAP
78
CC
CC
CC
78
00
FC
ENDCHAR
STARTCHAR guillemotright
ENCODING 187
SWIDTH 500 0
DWIDTH 8 0
BBX 8 7 0 0
BITMAP
D8
6C
36
1B
36
6C
D8
ENDCHAR
STARTCHAR onequarter
ENCODING 188
SWIDTH 500 0
DWIDTH 8 0
BBX 8 13 0 -2
BITMAP
60
E0
62
66
6C
18
30
78
DB
9B
1F
03
03
ENDCHAR
STARTCHAR onehalf
ENCODING 189
SWIDTH 500 0
DWIDTH 8 0
BBX 8 13 0 -2
BITMAP
60
E0
62
66
6C
18
30
60
DF
83
1F
18
1F
ENDCHAR
STARTCHAR threequarters
ENCODING 190
SWIDTH 500 0
DWIDTH 8 0
BBX 8 13 0 -2
BITMAP
F0
30
62
36
FC
18
30
78
DB
9B
1F
03
03
ENDCHAR
STARTCHAR questiondown
ENCODING 191
SWIDTH 500 0
DWIDTH 8 0
BBX 7 10 0 0
BITMAP
30
30
00
30
30
60
C0
C0
C6
FE
ENDCHAR
STARTCHAR Agrave
ENCODING 192
SWIDTH 500 0
DWIDTH 8 0
BBX 7 12 0 0
BITMAP
30
18
00
1E
26
46
C6
FE
C6
C6
C6
C6
ENDCHAR
STARTCHAR Aacute
ENCODING 193
SWIDTH 500 0
DWIDTH 8 0
BBX 7 12 0 0
BITMAP
18
30
00
1E
26
46
C6
FE
C6
C6
C6
C6
ENDCHAR
STARTCHAR Acircumflex
ENCODING 194
SWIDTH 500 0
DWIDTH 8 0
BBX 7 12 0 0
BITMAP
38
6C
00
1E
26
46
C6
FE
C6
C6
C6
C6
ENDCHAR
STARTCHAR Atilde
ENCODING 195
SWIDTH 500 0
DWIDTH 8 0
BBX 7 12 0 0
BITMAP
F6
DE
00
1E
26
46
C6
FE
C6
C6
C6
C6
ENDCHAR
STARTCHAR Adieresis
ENCODING 196
SWIDTH 500 0
DWIDTH 8 0
BBX 7 12 0 0
BITMAP
6C
6C
00
1E
26
46
C6
FE
C6
C6
C6
C6
ENDCHAR
STARTCHAR Aring
ENCODING 197
SWIDTH 500 0
DWIDTH 8 0
BBX 7 12 0 0
BITMAP
7C
6C
7C
1E
26
46
C6
FE
C6
C6
C6
C6
ENDCHAR
STARTCHAR AE
ENCODING 198
SWIDTH 500 0
DWIDTH 8 0
BBX 7 10 0 0
BITMAP
3E
58
D8
D8
FE
D8
D8
D8
D8
DE
ENDCHAR
STARTCHAR Ccedilla
ENCODING 199
SWIDTH 500 0
DWIDTH 8 0
BBX 7 13 0 -3
BITMAP
FE
C6
C0
C0
C0
C0
C0
C0
C6
FE
30
30
60
ENDCHAR
STARTCHAR Egrave
ENCODING 200
SWIDTH 500 0
DWIDTH 8 0
BBX 7 12 0 0
BITMAP
30
18
00
FE
C0
C0
C0
FC
C0
C0
C0
FE
ENDCHAR
STARTCHAR Eacute
ENCODING 201
SWIDTH 500 0
DWIDTH 8 0
BBX 7 12 0 0
BITMAP
18
30
00
FE
C0
C0
C0
FC
C0
C0
C0
FE
ENDCHAR
STARTCHAR Ecircumflex
ENCODING 202
SWIDTH 500 0
DWIDTH 8 0
BBX 7 12 0 0
BITMAP
38
6C
00
FE
C0
C0
C0
FC
C0
C0
C0
FE
ENDCHAR
STARTCHAR Edieresis
ENCODING 203
SWIDTH 500 0
DWIDTH 8 0
BBX 7 12 0 0
BITMAP
6C
6C
00
FE
C0
C0
C0
FC
C0
C0
C0
FE
ENDCHAR
STARTCHAR Igrave
ENCODING 204
SWIDTH 500 0
DWIDTH 8 0
BBX 5 12 2 0
BITMAP
C0
60
00
F0
60
60
60
60
60
68
68
F8
ENDCHAR
STARTCHAR Iacute
ENCODING 205
SWIDTH 500 0
DWIDTH 8 0
BBX 5 12 2 0
BITMAP
30
60
00
F0
60
60
60
60
60
68
68
F8
ENDCHAR
STARTCHAR Icircumflex
ENCODING 206
SWIDTH 500 0
DWIDTH 8 0
BBX 6 12 1 0
BITMAP
70
D8
00
78
30
30
30
30
30
34
34
7C
ENDCHAR
STARTCHAR Idieresis
ENCODING 207
SWIDTH 500 0
DWIDTH 8 0
BBX 6 12 1 0
BITMAP
CC
CC
00
78
30
30
30
30
30
34
34
7C
ENDCHAR
STARTCHAR Eth
ENCODING 208
SWIDTH 500 0
DWIDTH 8 0
BBX 7 10 0 0
BITMAP
70
78
6C
66
F6
66
66
66
66
7C
ENDCHAR
STARTCHAR Ntilde
ENCODING 209
SWIDTH 500 0
DWIDTH 8 0
BBX 7 12 0 0
BITMAP
F6
DE
00
CE
D6
E6
C6
C6
C6
C6
C6
C6
ENDCHAR
STARTCHAR Ograve
ENCODING 210
SWIDTH 500 0
DWIDTH 8 0
BBX 7 12 0 0
BITMAP
30
18
00
FE
C6
C6
C6
C6
C6
C6
C6
FE
ENDCHAR
STARTCHAR Oacute
ENCODING 211
SWIDTH 500 0
DWIDTH 8 0
BBX 7 12 0 0
BITMAP
18
30
00
FE
C6
C6
C6
C6
C6
C6
C6
FE
ENDCHAR
STARTCHAR Ocircumflex
ENCODING 212
SWIDTH 500 0
DWIDTH 8 0
BBX 7 12 0 0
BITMAP
38
6C
00
FE
C6
C6
C6
C6
C6
C6
C6
FE
ENDCHAR
STARTCHAR Otilde
ENCODING 213
SWIDTH 500 0
DWIDTH 8 0
BBX 7 12 0 0
BITMAP
F6
DE
00
FE
C6
C6
C6
C6
C6
C6
C6
FE
ENDCHAR
STARTCHAR Odieresis
ENCODING 214
SWIDTH 500 0
DWIDTH 8 0
BBX 7 12 0 0
BITMAP
6C
6C
00
FE
C6
C6
C6
C6
C6
C6
C6
FE
ENDCHAR
STARTCHAR multiply
ENCODING 215
SWIDTH 500 0
DWIDTH 8 0
BBX 7 5 0 2
BITMAP
C6
6C
38
6C
C6
ENDCHAR
STARTCHAR Oslash
ENCODING 216
SWIDTH 500 0
DWIDTH 8 0
BBX 8 10 0 0
BITMAP
7F
67
66
6E
7E
76
66
66
E6
FE
ENDCHAR
STARTCHAR Ugrave
ENCODING 217
SWIDTH 500 0
DWIDTH 8 0
BBX 7 12 0 0
BITMAP
30
18
C6
C6
C6
C6
C6
C6
C6
CE
D6
E6
ENDCHAR
STARTCHAR Uacute
ENCODING 218
SWIDTH 500 0
DWIDTH 8 0
BBX 7 12 0 0
BITMAP
18
30
C6
C6
C6
C6
C6
C6
C6
CE
D6
E6
ENDCHAR
STARTCHAR Ucircumflex
ENCODING 219
SWIDTH 500 0
DWIDTH 8 0
BBX 7 12 0 0
BITMAP
38
6C
00
C6
C6
C6
C6
C6
C6
CE
D6
E6
ENDCHAR
STARTCHAR Udieresis
ENCODING 220
SWIDTH 500 0
DWIDTH 8 0
BBX 7 12 0 0
BITMAP
6C
6C
00
C6
C6
C6
C6
C6
C6
CE
D6
E6
ENDCHAR
STARTCHAR afii10037
ENCODING 221
SWIDTH 500 0
DWIDTH 8 0
BBX 7 12 0 0
BITMAP
18
30
C6
C6
C6
C6
C6
FE
06
06
06
7E
ENDCHAR
STARTCHAR Thorn
ENCODING 222
SWIDTH 500 0
DWIDTH 8 0
BBX 7 10 0 0
BITMAP
C0
C0
FE
C6
C6
C6
C6
FE
C0
C0
ENDCHAR
STARTCHAR germandbls
ENCODING 223
SWIDTH 500 0
DWIDTH 8 0
BBX 7 12 0 -2
BITMAP
F8
D8
D8
D8
FE
C6
C6
C6
C6
FE
C0
C0
ENDCHAR
STARTCHAR agrave
ENCODING 224
SWIDTH 500 0
DWIDTH 8 0
BBX 7 10 0 0
BITMAP
30
18
00
7E
06
FE
C6
C6
C6
FE
ENDCHAR
STARTCHAR aacute
ENCODING 225
SWIDTH 500 0
DWIDTH 8 0
BBX 7 10 0 0
BITMAP
18
30
00
7E
06
FE
C6
C6
C6
FE
ENDCHAR
STARTCHAR acircumflex
ENCODING 226
SWIDTH 500 0
DWIDTH 8 0
BBX 7 10 0 0
BITMAP
38
6C
00
7E
06
FE
C6
C6
C6
FE
ENDCHAR
STARTCHAR atilde
ENCODING 227
SWIDTH 500 0
DWIDTH 8 0
BBX 7 10 0 0
BITMAP
F6
DE
00
7E
06
FE
C6
C6
C6
FE
ENDCHAR
STARTCHAR adieresis
ENCODING 228
SWIDTH 500 0
DWIDTH 8 0
BBX 7 10 0 0
BITMAP
6C
6C
00
7E
06
FE
C6
C6
C6
FE
ENDCHAR
STARTCHAR aring
ENCODING 229
SWIDTH 500 0
DWIDTH 8 0
BBX 7 10 0 0
BITMAP
7C
6C
7C
7E
06
FE
C6
C6
C6
FE
ENDCHAR
STARTCHAR ae
ENCODING 230
SWIDTH 500 0
DWIDTH 8 0
BBX 7 7 0 0
BITMAP
7E
16
16
FE
D0
D0
FC
ENDCHAR
STARTCHAR ccedilla
ENCODING 231
SWIDTH 500 0
DWIDTH 8 0
BBX 7 10 0 -3
BITMAP
FE
C0
C0
C0
C0
C0
FE
30
30
60
ENDCHAR
STARTCHAR egrave
ENCODING 232
SWIDTH 500 0
DWIDTH 8 0
BBX 7 10 0 0
BITMAP
30
18
00
FE
C6
C6
FE
C0
C0
FC
ENDCHAR
STARTCHAR eacute
ENCODING 233
SWIDTH 500 0
DWIDTH 8 0
BBX 7 10 0 0
BITMAP
18
30
00
FE
C6
C6
FE
C0
C0
FC
ENDCHAR
STARTCHAR ecircumflex
ENCODING 234
SWIDTH 500 0
DWIDTH 8 0
BBX 7 10 0 0
BITMAP
38
6C
00
FE
C6
C6
FE
C0
C0
FC
ENDCHAR
STARTCHAR edieresis
ENCODING 235
SWIDTH 500 0
DWIDTH 8 0
BBX 7 10 0 0
BITMAP
6C
6C
00
FE
C6
C6
FE
C0
C0
FC
ENDCHAR
STARTCHAR igrave
ENCODING 236
SWIDTH 500 0
DWIDTH 8 0
BBX 5 10 2 0
BITMAP
C0
60
00
E0
60
60
60
68
68
F8
ENDCHAR
STARTCHAR iacute
ENCODING 237
SWIDTH 500 0
DWIDTH 8 0
BBX 5 10 2 0
BITMAP
30
60
00
E0
60
60
60
68
68
F8
ENDCHAR
STARTCHAR icircumflex
ENCODING 238
SWIDTH 500 0
DWIDTH 8 0
BBX 6 10 1 0
BITMAP
70
D8
00
70
30
30
30
34
34
7C
ENDCHAR
STARTCHAR idieresis
ENCODING 239
SWIDTH 500 0
DWIDTH 8 0
BBX 6 10 1 0
BITMAP
D8
D8
00
70
30
30
30
34
34
7C
ENDCHAR
STARTCHAR eth
ENCODING 240
SWIDTH 500 0
DWIDTH 8 0
BBX 7 10 0 0
BITMAP
34
18
2C
FE
C6
C6
C6
C6
C6
FE
ENDCHAR
STARTCHAR ntilde
ENCODING 241
SWIDTH 500 0
DWIDTH 8 0
BBX 7 10 0 0
BITMAP
F6
DE
00
DE
E6
C6
C6
C6
C6
C6
ENDCHAR
STARTCHAR ograve
ENCODING 242
SWIDTH 500 0
DWIDTH 8 0
BBX 7 10 0 0
BITMAP
30
18
00
FE
C6
C6
C6
C6
C6
FE
ENDCHAR
STARTCHAR oacute
ENCODING 243
SWIDTH 500 0
DWIDTH 8 0
BBX 7 10 0 0
BITMAP
18
30
00
FE
C6
C6
C6
C6
C6
FE
ENDCHAR
STARTCHAR ocircumflex
ENCODING 244
SWIDTH 500 0
DWIDTH 8 0
BBX 7 10 0 0
BITMAP
38
6C
00
FE
C6
C6
C6
C6
C6
FE
ENDCHAR
STARTCHAR otilde
ENCODING 245
SWIDTH 500 0
DWIDTH 8 0
BBX 7 10 0 0
BITMAP
F6
DE
00
FE
C6
C6
C6
C6
C6
FE
ENDCHAR
STARTCHAR odieresis
ENCODING 246
SWIDTH 500 0
DWIDTH 8 0
BBX 7 10 0 0
BITMAP
6C
6C
00
FE
C6
C6
C6
C6
C6
FE
ENDCHAR
STARTCHAR divide
ENCODING 247
SWIDTH 500 0
DWIDTH 8 0
BBX 6 7 1 1
BITMAP
30
30
00
FC
00
30
30
ENDCHAR
STARTCHAR oslash
ENCODING 248
SWIDTH 500 0
DWIDTH 8 0
BBX 8 7 0 0
BITMAP
7F
67
6E
7E
76
E6
FE
ENDCHAR
STARTCHAR ugrave
ENCODING 249
SWIDTH 500 0
DWIDTH 8 0
BBX 7 10 0 0
BITMAP
30
18
00
C6
C6
C6
C6
C6
CE
F6
ENDCHAR
STARTCHAR uacute
ENCODING 250
SWIDTH 500 0
DWIDTH 8 0
BBX 7 10 0 0
BITMAP
18
30
00
C6
C6
C6
C6
C6
CE
F6
ENDCHAR
STARTCHAR ucircumflex
ENCODING 251
SWIDTH 500 0
DWIDTH 8 0
BBX 7 10 0 0
BITMAP
38
6C
00
C6
C6
C6
C6
C6
CE
F6
ENDCHAR
STARTCHAR udieresis
ENCODING 252
SWIDTH 500 0
DWIDTH 8 0
BBX 7 10 0 0
BITMAP
6C
6C
00
C6
C6
C6
C6
C6
CE
F6
ENDCHAR
STARTCHAR yacute
ENCODING 253
SWIDTH 500 0
DWIDTH 8 0
BBX 7 13 0 -3
BITMAP
18
30
00
C6
C6
C6
C6
C6
C6
FE
06
06
7E
ENDCHAR
STARTCHAR thorn
ENCODING 254
SWIDTH 500 0
DWIDTH 8 0
BBX 7 13 0 -3
BITMAP
C0
C0
C0
FE
C6
C6
C6
C6
C6
FE
C0
C0
C0
ENDCHAR
STARTCHAR ydieresis
ENCODING 255
SWIDTH 500 0
DWIDTH 8 0
BBX 7 13 0 -3
BITMAP
6C
6C
00
C6
C6
C6
C6
C6
C6
FE
06
06
7E
ENDCHAR
STARTCHAR Amacron
ENCODING 256
SWIDTH 500 0
DWIDTH 8 0
BBX 7 12 0 0
BITMAP
7C
00
1E
26
46
C6
C6
FE
C6
C6
C6
C6
ENDCHAR
STARTCHAR amacron
ENCODING 257
SWIDTH 500 0
DWIDTH 8 0
BBX 7 9 0 0
BITMAP
7C
00
7E
06
FE
C6
C6
C6
FE
ENDCHAR
STARTCHAR Abreve
ENCODING 258
SWIDTH 500 0
DWIDTH 8 0
BBX 7 12 0 0
BITMAP
6C
7C
00
1E
26
46
C6
FE
C6
C6
C6
C6
ENDCHAR
STARTCHAR abreve
ENCODING 259
SWIDTH 500 0
DWIDTH 8 0
BBX 7 10 0 0
BITMAP
6C
7C
00
7E
06
FE
C6
C6
C6
FE
ENDCHAR
STARTCHAR Aogonek
ENCODING 260
SWIDTH 500 0
DWIDTH 8 0
BBX 8 13 0 -3
BITMAP
1E
26
46
C6
C6
FE
C6
C6
C6
C6
06
0C
0F
ENDCHAR
STARTCHAR aogonek
ENCODING 261
SWIDTH 500 0
DWIDTH 8 0
BBX 8 10 0 -3
BITMAP
7E
06
FE
C6
C6
C6
FE
06
0C
0F
ENDCHAR
STARTCHAR Cacute
ENCODING 262
SWIDTH 500 0
DWIDTH 8 0
BBX 7 12 0 0
BITMAP
18
30
00
FE
C6
C0
C0
C0
C0
C0
C6
FE
ENDCHAR
STARTCHAR cacute
ENCODING 263
SWIDTH 500 0
DWIDTH 8 0
BBX 7 10 0 0
BITMAP
18
30
00
FE
C0
C0
C0
C0
C0
FE
ENDCHAR
STARTCHAR Ccircumflex
ENCODING 264
SWIDTH 500 0
DWIDTH 8 0
BBX 7 12 0 0
BITMAP
38
6C
00
FE
C6
C0
C0
C0
C0
C0
C6
FE
ENDCHAR
STARTCHAR ccircumflex
ENCODING 265
SWIDTH 500 0
DWIDTH 8 0
BBX 7 10 0 0
BITMAP
38
6C
00
FE
C6
C0
C0
C0
C6
FE
ENDCHAR
STARTCHAR Cdotaccent
ENCODING 266
SWIDTH 500 0
DWIDTH 8 0
BBX 7 12 0 0
BITMAP
18
18
00
FE
C6
C0
C0
C0
C0
C0
C6
FE
ENDCHAR
STARTCHAR cdotaccent
ENCODING 267
SWIDTH 500 0
DWIDTH 8 0
BBX 7 10 0 0
BITMAP
18
18
00
FE
C0
C0
C0
C0
C0
FE
ENDCHAR
STARTCHAR Ccaron
ENCODING 268
SWIDTH 500 0
DWIDTH 8 0
BBX 7 12 0 0
BITMAP
6C
38
00
FE
C6
C0
C0
C0
C0
C0
C6
FE
ENDCHAR
STARTCHAR ccaron
ENCODING 269
SWIDTH 500 0
DWIDTH 8 0
BBX 7 10 0 0
BITMAP
6C
38
00
FE
C0
C0
C0
C0
C0
FE
ENDCHAR
STARTCHAR Dcaron
ENCODING 270
SWIDTH 500 0
DWIDTH 8 0
BBX 7 12 0 0
BITMAP
6C
38
00
F0
D8
CC
C6
C6
C6
C6
C6
FC
ENDCHAR
STARTCHAR dcaron
ENCODING 271
SWIDTH 500 0
DWIDTH 8 0
BBX 7 12 0 0
BITMAP
6C
38
06
06
06
FE
C6
C6
C6
C6
C6
FE
ENDCHAR
STARTCHAR Dcroat
ENCODING 272
SWIDTH 500 0
DWIDTH 8 0
BBX 7 10 0 0
BITMAP
70
78
6C
66
F6
66
66
66
66
7C
ENDCHAR
STARTCHAR dcroat
ENCODING 273
SWIDTH 500 0
DWIDTH 8 0
BBX 8 10 0 0
BITMAP
06
1F
06
FE
C6
C6
C6
C6
C6
FE
ENDCHAR
STARTCHAR Emacron
ENCODING 274
SWIDTH 500 0
DWIDTH 8 0
BBX 7 12 0 0
BITMAP
7C
00
FE
C0
C0
C0
FC
C0
C0
C0
C0
FE
ENDCHAR
STARTCHAR emacron
ENCODING 275
SWIDTH 500 0
DWIDTH 8 0
BBX 7 9 0 0
BITMAP
7C
00
FE
C6
C6
FE
C0
C0
FC
ENDCHAR
STARTCHAR Ebreve
ENCODING 276
SWIDTH 500 0
DWIDTH 8 0
BBX 7 12 0 0
BITMAP
6C
7C
00
FE
C0
C0
C0
FC
C0
C0
C0
FE
ENDCHAR
STARTCHAR ebreve
ENCODING 277
SWIDTH 500 0
DWIDTH 8 0
BBX 7 10 0 0
BITMAP
6C
7C
00
FE
C6
C6
FE
C0
C0
FC
ENDCHAR
STARTCHAR Edotaccent
ENCODING 278
SWIDTH 500 0
DWIDTH 8 0
BBX 7 12 0 0
BITMAP
18
18
00
FE
C0
C0
C0
FC
C0
C0
C0
FE
ENDCHAR
STARTCHAR edotaccent
ENCODING 279
SWIDTH 500 0
DWIDTH 8 0
BBX 7 10 0 0
BITMAP
18
18
00
FE
C6
C6
FE
C0
C0
FC
ENDCHAR
STARTCHAR Eogonek
ENCODING 280
SWIDTH 500 0
DWIDTH 8 0
BBX 8 13 0 -3
BITMAP
FE
C0
C0
C0
FC
C0
C0
C0
C0
FE
06
0C
0F
ENDCHAR
STARTCHAR eogonek
ENCODING 281
SWIDTH 500 0
DWIDTH 8 0
BBX 7 10 0 -3
BITMAP
FE
C6
C6
FE
C0
C0
FC
18
30
3C
ENDCHAR
STARTCHAR Ecaron
ENCODING 282
SWIDTH 500 0
DWIDTH 8 0
BBX 7 12 0 0
BITMAP
6C
38
00
FE
C0
C0
C0
FC
C0
C0
C0
FE
ENDCHAR
STARTCHAR ecaron
ENCODING 283
SWIDTH 500 0
DWIDTH 8 0
BBX 7 10 0 0
BITMAP
6C
38
00
FE
C6
C6
FE
C0
C0
FC
ENDCHAR
STARTCHAR Gcircumflex
ENCODING 284
SWIDTH 500 0
DWIDTH 8 0
BBX 7 12 0 0
BITMAP
38
6C
00
FE
C6
C0
C0
CE
C6
C6
C6
FE
ENDCHAR
STARTCHAR gcircumflex
ENCODING 285
SWIDTH 500 0
DWIDTH 8 0
BBX 7 13 0 -3
BITMAP
38
6C
00
FE
C6
C6
C6
C6
C6
FE
06
06
7E
ENDCHAR
STARTCHAR Gbreve
ENCODING 286
SWIDTH 500 0
DWIDTH 8 0
BBX 7 12 0 0
BITMAP
6C
7C
00
FE
C6
C0
C0
CE
C6
C6
C6
FE
ENDCHAR
STARTCHAR gbreve
ENCODING 287
SWIDTH 500 0
DWIDTH 8 0
BBX 7 13 0 -3
BITMAP
6C
7C
00
FE
C6
C6
C6
C6
C6
FE
06
06
7E
ENDCHAR
STARTCHAR Gdotaccent
ENCODING 288
SWIDTH 500 0
DWIDTH 8 0
BBX 7 12 0 0
BITMAP
18
18
00
FE
C6
C0
C0
CE
C6
C6
C6
FE
ENDCHAR
STARTCHAR gdotaccent
ENCODING 289
SWIDTH 500 0
DWIDTH 8 0
BBX 7 13 0 -3
BITMAP
18
18
00
FE
C6
C6
C6
C6
C6
FE
06
06
7E
ENDCHAR
STARTCHAR Gcommaaccent
ENCODING 290
SWIDTH 500 0
DWIDTH 8 0
BBX 7 14 0 -4
BITMAP
FE
C6
C0
C0
C0
CE
C6
C6
C6
FE
00
30
30
60
ENDCHAR
STARTCHAR gcommaaccent
ENCODING 291
SWIDTH 500 0
DWIDTH 8 0
BBX 7 14 0 -3
BITMAP
0C
18
18
00
FE
C6
C6
C6
C6
C6
FE
06
06
7E
ENDCHAR
STARTCHAR Hcircumflex
ENCODING 292
SWIDTH 500 0
DWIDTH 8 0
BBX 7 12 0 0
BITMAP
38
6C
00
C6
C6
C6
C6
FE
C6
C6
C6
C6
ENDCHAR
STARTCHAR hcircumflex
ENCODING 293
SWIDTH 500 0
DWIDTH 8 0
BBX 7 12 0 0
BITMAP
1C
36
C0
C0
C0
FE
C6
C6
C6
C6
C6
C6
ENDCHAR
STARTCHAR Hbar
ENCODING 294
SWIDTH 500 0
DWIDTH 8 0
BBX 8 10 0 0
BITMAP
66
FF
66
66
7E
66
66
66
66
66
ENDCHAR
STARTCHAR hbar
ENCODING 295
SWIDTH 500 0
DWIDTH 8 0
BBX 7 10 0 0
BITMAP
60
F8
60
7E
66
66
66
66
66
66
ENDCHAR
STARTCHAR Itilde
ENCODING 296
SWIDTH 500 0
DWIDTH 8 0
BBX 7 12 0 0
BITMAP
F6
DE
00
3C
18
18
18
18
18
1A
1A
3E
ENDCHAR
STARTCHAR itilde
ENCODING 297
SWIDTH 500 0
DWIDTH 8 0
BBX 7 10 0 0
BITMAP
F6
DE
00
38
18
18
18
1A
1A
3E
ENDCHAR
STARTCHAR Imacron
ENCODING 298
SWIDTH 500 0
DWIDTH 8 0
BBX 6 12 1 0
BITMAP
FC
00
78
30
30
30
30
30
30
34
34
7C
ENDCHAR
STARTCHAR imacron
ENCODING 299
SWIDTH 500 0
DWIDTH 8 0
BBX 6 9 1 0
BITMAP
F8
00
70
30
30
30
34
34
7C
ENDCHAR
STARTCHAR Ibreve
ENCODING 300
SWIDTH 500 0
DWIDTH 8 0
BBX 6 12 1 0
BITMAP
D8
F8
00
78
30
30
30
30
30
34
34
7C
ENDCHAR
STARTCHAR ibreve
ENCODING 301
SWIDTH 500 0
DWIDTH 8 0
BBX 6 10 1 0
BITMAP
D8
F8
00
70
30
30
30
34
34
7C
ENDCHAR
STARTCHAR Iogonek
ENCODING 302
SWIDTH 500 0
DWIDTH 8 0
BBX 5 13 2 -3
BITMAP
F0
60
60
60
60
60
60
68
68
F8
60
C0
F0
ENDCHAR
STARTCHAR iogonek
ENCODING 303
SWIDTH 500 0
DWIDTH 8 0
BBX 5 13 2 -3
BITMAP
60
60
00
E0
60
60
60
68
68
F8
60
C0
F0
ENDCHAR
STARTCHAR Idotaccent
ENCODING 304
SWIDTH 500 0
DWIDTH 8 0
BBX 5 12 2 0
BITMAP
60
60
00
F0
60
60
60
60
60
68
68
F8
ENDCHAR
STARTCHAR dotlessi
ENCODING 305
SWIDTH 500 0
DWIDTH 8 0
BBX 5 7 2 0
BITMAP
E0
60
60
60
68
68
F8
ENDCHAR
STARTCHAR IJ
ENCODING 306
SWIDTH 500 0
DWIDTH 8 0
BBX 8 10 0 0
BITMAP
CF
C6
C6
C6
C6
C6
C6
C6
F6
FE
ENDCHAR
STARTCHAR ij
ENCODING 307
SWIDTH 500 0
DWIDTH 8 0
BBX 7 13 0 -3
BITMAP
C6
C6
00
C6
C6
C6
C6
C6
C6
C6
06
36
3E
ENDCHAR
STARTCHAR Jcircumflex
ENCODING 308
SWIDTH 500 0
DWIDTH 8 0
BBX 7 12 0 0
BITMAP
1C
36
00
1E
0C
0C
0C
0C
0C
0C
CC
FC
ENDCHAR
STARTCHAR jcircumflex
ENCODING 309
SWIDTH 500 0
DWIDTH 8 0
BBX 7 13 1 -3
BITMAP
1C
36
00
1C
0C
0C
0C
0C
0C
0C
0C
CC
FC
ENDCHAR
STARTCHAR Kcommaaccent
ENCODING 310
SWIDTH 500 0
DWIDTH 8 0
BBX 7 14 0 -4
BITMAP
C6
CC
D8
F0
E0
FE
C6
C6
C6
C6
00
30
30
60
ENDCHAR
STARTCHAR kcommaaccent
ENCODING 311
SWIDTH 500 0
DWIDTH 8 0
BBX 7 14 0 -4
BITMAP
C0
C0
C0
C6
CC
D8
FE
C6
C6
C6
00
30
30
60
ENDCHAR
STARTCHAR kgreenlandic
ENCODING 312
SWIDTH 500 0
DWIDTH 8 0
BBX 7 7 0 0
BITMAP
C6
CC
D8
FE
C6
C6
C6
ENDCHAR
STARTCHAR Lacute
ENCODING 313
SWIDTH 500 0
DWIDTH 8 0
BBX 7 12 0 0
BITMAP
60
C0
00
C0
C0
C0
C0
C0
C0
C0
C6
FE
ENDCHAR
STARTCHAR lacute
ENCODING 314
SWIDTH 500 0
DWIDTH 8 0
BBX 5 12 2 0
BITMAP
30
60
00
E0
60
60
60
60
60
68
68
F8
ENDCHAR
STARTCHAR Lcommaaccent
ENCODING 315
SWIDTH 500 0
DWIDTH 8 0
BBX 7 14 0 -4
BITMAP
C0
C0
C0
C0
C0
C0
C0
C0
C6
FE
00
30
30
60
ENDCHAR
STARTCHAR lcommaaccent
ENCODING 316
SWIDTH 500 0
DWIDTH 8 0
BBX 5 14 2 -4
BITMAP
E0
60
60
60
60
60
60
68
68
F8
00
60
60
C0
ENDCHAR
STARTCHAR Lcaron
ENCODING 317
SWIDTH 500 0
DWIDTH 8 0
BBX 7 12 0 0
BITMAP
6C
38
C0
C0
C0
C0
C0
C0
C0
C0
C6
FE
ENDCHAR
STARTCHAR lcaron
ENCODING 318
SWIDTH 500 0
DWIDTH 8 0
BBX 6 12 1 0
BITMAP
D8
70
00
70
30
30
30
30
30
34
34
7C
ENDCHAR
STARTCHAR Ldot
ENCODING 319
SWIDTH 500 0
DWIDTH 8 0
BBX 7 10 0 0
BITMAP
C0
C0
C0
C0
CC
CC
C0
C0
C6
FE
ENDCHAR
STARTCHAR ldot
ENCODING 320
SWIDTH 500 0
DWIDTH 8 0
BBX 6 10 2 0
BITMAP
E0
60
60
60
6C
6C
60
68
68
F8
ENDCHAR
STARTCHAR Lslash
ENCODING 321
SWIDTH 500 0
DWIDTH 8 0
BBX 8 10 0 0
BITMAP
60
60
60
60
70
E0
60
60
63
7F
ENDCHAR
STARTCHAR lslash
ENCODING 322
SWIDTH 500 0
DWIDTH 8 0
BBX 5 10 2 0
BITMAP
E0
60
60
60
70
E0
60
68
68
F8
ENDCHAR
STARTCHAR Nacute
ENCODING 323
SWIDTH 500 0
DWIDTH 8 0
BBX 7 12 0 0
BITMAP
18
30
CE
D6
E6
C6
C6
C6
C6
C6
C6
C6
ENDCHAR
STARTCHAR nacute
ENCODING 324
SWIDTH 500 0
DWIDTH 8 0
BBX 7 10 0 0
BITMAP
18
30
00
DE
E6
C6
C6
C6
C6
C6
ENDCHAR
STARTCHAR Ncommaaccent
ENCODING 325
SWIDTH 500 0
DWIDTH 8 0
BBX 7 14 0 -4
BITMAP
CE
D6
E6
C6
C6
C6
C6
C6
C6
C6
00
30
30
60
ENDCHAR
STARTCHAR ncommaaccent
ENCODING 326
SWIDTH 500 0
DWIDTH 8 0
BBX 7 11 0 -4
BITMAP
DE
E6
C6
C6
C6
C6
C6
00
30
30
60
ENDCHAR
STARTCHAR Ncaron
ENCODING 327
SWIDTH 500 0
DWIDTH 8 0
BBX 7 12 0 0
BITMAP
6C
38
CE
D6
E6
C6
C6
C6
C6
C6
C6
C6
ENDCHAR
STARTCHAR ncaron
ENCODING 328
SWIDTH 500 0
DWIDTH 8 0
BBX 7 10 0 0
BITMAP
6C
38
00
DE
E6
C6
C6
C6
C6
C6
ENDCHAR
STARTCHAR napostrophe
ENCODING 329
SWIDTH 500 0
DWIDTH 8 0
BBX 7 11 0 0
BITMAP
60
60
C0
00
DE
E6
C6
C6
C6
C6
C6
ENDCHAR
STARTCHAR Eng
ENCODING 330
SWIDTH 500 0
DWIDTH 8 0
BBX 7 13 0 -3
BITMAP
CE
D6
E6
C6
C6
C6
C6
C6
C6
C6
06
06
0C
ENDCHAR
STARTCHAR eng
ENCODING 331
SWIDTH 500 0
DWIDTH 8 0
BBX 7 10 0 -3
BITMAP
DE
E6
C6
C6
C6
C6
C6
06
06
0C
ENDCHAR
STARTCHAR Omacron
ENCODING 332
SWIDTH 500 0
DWIDTH 8 0
BBX 7 12 0 0
BITMAP
7C
00
FE
C6
C6
C6
C6
C6
C6
C6
C6
FE
ENDCHAR
STARTCHAR omacron
ENCODING 333
SWIDTH 500 0
DWIDTH 8 0
BBX 7 9 0 0
BITMAP
7C
00
FE
C6
C6
C6
C6
C6
FE
ENDCHAR
STARTCHAR Obreve
ENCODING 334
SWIDTH 500 0
DWIDTH 8 0
BBX 7 12 0 0
BITMAP
6C
7C
00
FE
C6
C6
C6
C6
C6
C6
C6
FE
ENDCHAR
STARTCHAR obreve
ENCODING 335
SWIDTH 500 0
DWIDTH 8 0
BBX 7 10 0 0
BITMAP
6C
7C
00
FE
C6
C6
C6
C6
C6
FE
ENDCHAR
STARTCHAR Ohungarumlaut
ENCODING 336
SWIDTH 500 0
DWIDTH 8 0
BBX 7 12 0 0
BITMAP
F6
DE
00
FE
C6
C6
C6
C6
C6
C6
C6
FE
ENDCHAR
STARTCHAR ohungarumlaut
ENCODING 337
SWIDTH 500 0
DWIDTH 8 0
BBX 7 10 0 0
BITMAP
F6
DE
00
FE
C6
C6
C6
C6
C6
FE
ENDCHAR
STARTCHAR OE
ENCODING 338
SWIDTH 500 0
DWIDTH 8 0
BBX 7 10 0 0
BITMAP
FE
D8
D8
D8
DE
D8
D8
D8
D8
FE
ENDCHAR
STARTCHAR oe
ENCODING 339
SWIDTH 500 0
DWIDTH 8 0
BBX 7 7 0 0
BITMAP
FE
D6
D6
DE
D0
D0
FC
ENDCHAR
STARTCHAR Racute
ENCODING 340
SWIDTH 500 0
DWIDTH 8 0
BBX 7 12 0 0
BITMAP
18
30
00
FE
C6
C6
C6
FE
CC
CC
C6
C6
ENDCHAR
STARTCHAR racute
ENCODING 341
SWIDTH 500 0
DWIDTH 8 0
BBX 7 10 0 0
BITMAP
18
30
00
FE
C6
C0
C0
C0
C0
C0
ENDCHAR
STARTCHAR Rcommaaccent
ENCODING 342
SWIDTH 500 0
DWIDTH 8 0
BBX 7 14 0 -4
BITMAP
FE
C6
C6
C6
C6
FE
CC
CC
C6
C6
00
30
30
60
ENDCHAR
STARTCHAR rcommaaccent
ENCODING 343
SWIDTH 500 0
DWIDTH 8 0
BBX 8 11 0 -4
BITMAP
7F
63
60
60
60
60
60
00
60
60
C0
ENDCHAR
STARTCHAR Rcaron
ENCODING 344
SWIDTH 500 0
DWIDTH 8 0
BBX 7 12 0 0
BITMAP
6C
38
00
FE
C6
C6
C6
FE
CC
CC
C6
C6
ENDCHAR
STARTCHAR rcaron
ENCODING 345
SWIDTH 500 0
DWIDTH 8 0
BBX 7 10 0 0
BITMAP
6C
38
00
FE
C6
C0
C0
C0
C0
C0
ENDCHAR
STARTCHAR Sacute
ENCODING 346
SWIDTH 500 0
DWIDTH 8 0
BBX 7 12 0 0
BITMAP
18
30
00
FE
C6
C0
C0
FE
06
06
C6
FE
ENDCHAR
STARTCHAR sacute
ENCODING 347
SWIDTH 500 0
DWIDTH 8 0
BBX 7 10 0 0
BITMAP
0C
18
00
FE
C0
C0
FE
06
06
FE
ENDCHAR
STARTCHAR Scircumflex
ENCODING 348
SWIDTH 500 0
DWIDTH 8 0
BBX 7 12 0 0
BITMAP
38
6C
00
FE
C6
C0
C0
FE
06
06
C6
FE
ENDCHAR
STARTCHAR scircumflex
ENCODING 349
SWIDTH 500 0
DWIDTH 8 0
BBX 7 10 0 0
BITMAP
38
6C
00
FE
C0
C0
FE
06
06
FE
ENDCHAR
STARTCHAR Scedilla
ENCODING 350
SWIDTH 500 0
DWIDTH 8 0
BBX 7 13 0 -3
BITMAP
FE
C6
C0
C0
FE
06
06
C6
C6
FE
30
30
60
ENDCHAR
STARTCHAR scedilla
ENCODING 351
SWIDTH 500 0
DWIDTH 8 0
BBX 7 10 0 -3
BITMAP
FE
C0
C0
FE
06
06
FE
30
30
60
ENDCHAR
STARTCHAR Scaron
ENCODING 352
SWIDTH 500 0
DWIDTH 8 0
BBX 7 12 0 0
BITMAP
6C
38
00
FE
C6
C0
C0
FE
06
06
C6
FE
ENDCHAR
STARTCHAR scaron
ENCODING 353
SWIDTH 500 0
DWIDTH 8 0
BBX 7 10 0 0
BITMAP
6C
38
00
FE
C0
C0
FE
06
06
FE
ENDCHAR
STARTCHAR Tcedilla
ENCODING 354
SWIDTH 500 0
DWIDTH 8 0
BBX 8 13 0 -3
BITMAP
FF
18
18
18
18
18
18
18
18
18
0C
0C
18
ENDCHAR
STARTCHAR tcedilla
ENCODING 355
SWIDTH 500 0
DWIDTH 8 0
BBX 6 13 1 -3
BITMAP
60
60
60
F8
60
60
60
60
60
7C
18
18
30
ENDCHAR
STARTCHAR Tcaron
ENCODING 356
SWIDTH 500 0
DWIDTH 8 0
BBX 8 12 0 0
BITMAP
36
1C
00
FF
18
18
18
18
18
18
18
18
ENDCHAR
STARTCHAR tcaron
ENCODING 357
SWIDTH 500 0
DWIDTH 8 0
BBX 6 12 1 0
BITMAP
D8
70
00
60
60
F8
60
60
60
60
60
7C
ENDCHAR
STARTCHAR Tbar
ENCODING 358
SWIDTH 500 0
DWIDTH 8 0
BBX 8 10 0 0
BITMAP
FF
18
18
18
7E
18
18
18
18
18
ENDCHAR
STARTCHAR tbar
ENCODING 359
SWIDTH 500 0
DWIDTH 8 0
BBX 6 10 1 0
BITMAP
60
60
60
F8
60
F0
60
60
60
7C
ENDCHAR
STARTCHAR Utilde
ENCODING 360
SWIDTH 500 0
DWIDTH 8 0
BBX 7 12 0 0
BITMAP
F6
DE
00
C6
C6
C6
C6
C6
C6
CE
D6
E6
ENDCHAR
STARTCHAR utilde
ENCODING 361
SWIDTH 500 0
DWIDTH 8 0
BBX 7 10 0 0
BITMAP
76
DC
00
C6
C6
C6
C6
C6
CE
F6
ENDCHAR
STARTCHAR Umacron
ENCODING 362
SWIDTH 500 0
DWIDTH 8 0
BBX 7 12 0 0
BITMAP
7C
00
C6
C6
C6
C6
C6
C6
C6
CE
D6
E6
ENDCHAR
STARTCHAR umacron
ENCODING 363
SWIDTH 500 0
DWIDTH 8 0
BBX 7 9 0 0
BITMAP
7C
00
C6
C6
C6
C6
C6
CE
F6
ENDCHAR
STARTCHAR Ubreve
ENCODING 364
SWIDTH 500 0
DWIDTH 8 0
BBX 7 12 0 0
BITMAP
6C
7C
C6
C6
C6
C6
C6
C6
C6
CE
D6
E6
ENDCHAR
STARTCHAR ubreve
ENCODING 365
SWIDTH 500 0
DWIDTH 8 0
BBX 7 10 0 0
BITMAP
6C
7C
00
C6
C6
C6
C6
C6
CE
F6
ENDCHAR
STARTCHAR Uring
ENCODING 366
SWIDTH 500 0
DWIDTH 8 0
BBX 7 12 0 0
BITMAP
7C
6C
7C
C6
C6
C6
C6
C6
C6
CE
D6
E6
ENDCHAR
STARTCHAR uring
ENCODING 367
SWIDTH 500 0
DWIDTH 8 0
BBX 7 10 0 0
BITMAP
7C
6C
7C
C6
C6
C6
C6
C6
CE
F6
ENDCHAR
STARTCHAR Uhungarumlaut
ENCODING 368
SWIDTH 500 0
DWIDTH 8 0
BBX 7 12 0 0
BITMAP
66
CC
00
C6
C6
C6
C6
C6
C6
CE
D6
E6
ENDCHAR
STARTCHAR uhungarumlaut
ENCODING 369
SWIDTH 500 0
DWIDTH 8 0
BBX 7 10 0 0
BITMAP
36
6C
00
C6
C6
C6
C6
C6
CE
F6
ENDCHAR
STARTCHAR Uogonek
ENCODING 370
SWIDTH 500 0
DWIDTH 8 0
BBX 7 13 0 -3
BITMAP
C6
C6
C6
C6
C6
C6
C6
CE
D6
E6
0E
18
1E
ENDCHAR
STARTCHAR uogonek
ENCODING 371
SWIDTH 500 0
DWIDTH 8 0
BBX 8 10 0 -3
BITMAP
C6
C6
C6
C6
C6
CE
F6
06
0C
0F
ENDCHAR
STARTCHAR Wcircumflex
ENCODING 372
SWIDTH 500 0
DWIDTH 8 0
BBX 7 12 0 0
BITMAP
38
6C
00
C6
C6
C6
D6
D6
D6
D6
D6
FE
ENDCHAR
STARTCHAR wcircumflex
ENCODING 373
SWIDTH 500 0
DWIDTH 8 0
BBX 7 10 0 0
BITMAP
38
6C
00
C6
C6
D6
D6
D6
D6
FE
ENDCHAR
STARTCHAR afii10037
ENCODING 376
SWIDTH 500 0
DWIDTH 8 0
BBX 7 12 0 0
BITMAP
6C
6C
00
C6
C6
C6
C6
FE
06
06
06
7E
ENDCHAR
STARTCHAR Zacute
ENCODING 377
SWIDTH 500 0
DWIDTH 8 0
BBX 7 12 0 0
BITMAP
18
30
00
FE
06
0C
18
30
60
C0
C0
FE
ENDCHAR
STARTCHAR zacute
ENCODING 378
SWIDTH 500 0
DWIDTH 8 0
BBX 7 10 0 0
BITMAP
18
30
00
FE
0C
18
30
60
C0
FE
ENDCHAR
STARTCHAR Zdotaccent
ENCODING 379
SWIDTH 500 0
DWIDTH 8 0
BBX 7 12 0 0
BITMAP
18
18
00
FE
06
0C
18
30
60
C0
C0
FE
ENDCHAR
STARTCHAR zdotaccent
ENCODING 380
SWIDTH 500 0
DWIDTH 8 0
BBX 7 10 0 0
BITMAP
18
18
00
FE
0C
18
30
60
C0
FE
ENDCHAR
STARTCHAR Zcaron
ENCODING 381
SWIDTH 500 0
DWIDTH 8 0
BBX 7 12 0 0
BITMAP
6C
38
00
FE
06
0C
18
30
60
C0
C0
FE
ENDCHAR
STARTCHAR zcaron
ENCODING 382
SWIDTH 500 0
DWIDTH 8 0
BBX 7 10 0 0
BITMAP
6C
38
00
FE
0C
18
30
60
C0
FE
ENDCHAR
STARTCHAR Schwa
ENCODING 399
SWIDTH 500 0
DWIDTH 8 0
BBX 7 10 0 0
BITMAP
7E
06
06
06
FE
C6
C6
C6
C6
FE
ENDCHAR
STARTCHAR florin
ENCODING 402
SWIDTH 500 0
DWIDTH 8 0
BBX 8 13 0 -3
BITMAP
1F
1B
18
18
3E
18
18
18
18
18
18
D8
F8
ENDCHAR
STARTCHAR Ezh
ENCODING 439
SWIDTH 500 0
DWIDTH 8 0
BBX 7 10 0 0
BITMAP
FE
06
0C
18
3E
06
06
06
06
FE
ENDCHAR
STARTCHAR Scommaaccent
ENCODING 536
SWIDTH 500 0
DWIDTH 8 0
BBX 7 14 0 -4
BITMAP
FE
C6
C0
C0
FE
06
06
C6
C6
FE
00
30
30
60
ENDCHAR
STARTCHAR scommaaccent
ENCODING 537
SWIDTH 500 0
DWIDTH 8 0
BBX 7 11 0 -4
BITMAP
FE
C0
C0
FE
06
06
FE
00
30
30
60
ENDCHAR
STARTCHAR Tcommaaccent
ENCODING 538
SWIDTH 500 0
DWIDTH 8 0
BBX 8 14 0 -4
BITMAP
FF
18
18
18
18
18
18
18
18
18
00
18
18
30
ENDCHAR
STARTCHAR tcommaaccent
ENCODING 539
SWIDTH 500 0
DWIDTH 8 0
BBX 6 14 1 -4
BITMAP
60
60
60
F8
60
60
60
60
60
7C
00
18
18
30
ENDCHAR
STARTCHAR afii10037
ENCODING 562
SWIDTH 500 0
DWIDTH 8 0
BBX 7 12 0 0
BITMAP
7C
00
C6
C6
C6
C6
C6
FE
06
06
06
7E
ENDCHAR
STARTCHAR uni0233
ENCODING 563
SWIDTH 500 0
DWIDTH 8 0
BBX 7 12 0 -3
BITMAP
7C
00
C6
C6
C6
C6
C6
C6
FE
06
06
7E
ENDCHAR
STARTCHAR uni0237
ENCODING 567
SWIDTH 500 0
DWIDTH 8 0
BBX 6 10 1 -3
BITMAP
1C
0C
0C
0C
0C
0C
0C
0C
CC
FC
ENDCHAR
STARTCHAR schwa
ENCODING 601
SWIDTH 500 0
DWIDTH 8 0
BBX 7 7 0 0
BITMAP
7E
06
06
FE
C6
C6
FE
ENDCHAR
STARTCHAR ezh
ENCODING 658
SWIDTH 500 0
DWIDTH 8 0
BBX 7 10 0 -3
BITMAP
FE
06
0C
18
3E
06
06
06
06
FE
ENDCHAR
STARTCHAR commaturnedmod
ENCODING 699
SWIDTH 500 0
DWIDTH 8 0
BBX 3 3 2 9
BITMAP
60
C0
C0
ENDCHAR
STARTCHAR afii57929
ENCODING 700
SWIDTH 500 0
DWIDTH 8 0
BBX 3 3 2 9
BITMAP
60
60
C0
ENDCHAR
STARTCHAR afii64937
ENCODING 701
SWIDTH 500 0
DWIDTH 8 0
BBX 3 3 2 9
BITMAP
C0
C0
60
ENDCHAR
STARTCHAR circumflex
ENCODING 710
SWIDTH 500 0
DWIDTH 8 0
BBX 5 2 1 10
BITMAP
70
D8
ENDCHAR
STARTCHAR caron
ENCODING 711
SWIDTH 500 0
DWIDTH 8 0
BBX 5 2 1 10
BITMAP
D8
70
ENDCHAR
STARTCHAR breve
ENCODING 728
SWIDTH 500 0
DWIDTH 8 0
BBX 5 2 1 10
BITMAP
D8
F8
ENDCHAR
STARTCHAR dotaccent
ENCODING 729
SWIDTH 500 0
DWIDTH 8 0
BBX 2 2 3 10
BITMAP
C0
C0
ENDCHAR
STARTCHAR ogonek
ENCODING 731
SWIDTH 500 0
DWIDTH 8 0
BBX 4 3 4 -3
BITMAP
60
C0
F0
ENDCHAR
STARTCHAR tilde
ENCODING 732
SWIDTH 500 0
DWIDTH 8 0
BBX 7 2 0 10
BITMAP
F6
DE
ENDCHAR
STARTCHAR hungarumlaut
ENCODING 733
SWIDTH 500 0
DWIDTH 8 0
BBX 6 2 1 10
BITMAP
6C
D8
ENDCHAR
STARTCHAR gravecomb
ENCODING 768
SWIDTH 500 0
DWIDTH 8 0
BBX 3 2 2 10
BITMAP
C0
60
ENDCHAR
STARTCHAR acutecomb
ENCODING 769
SWIDTH 500 0
DWIDTH 8 0
BBX 3 2 2 10
BITMAP
60
C0
ENDCHAR
STARTCHAR tonos
ENCODING 900
SWIDTH 500 0
DWIDTH 8 0
BBX 3 2 0 10
BITMAP
60
C0
ENDCHAR
STARTCHAR dieresistonos
ENCODING 901
SWIDTH 500 0
DWIDTH 8 0
BBX 5 4 1 8
BITMAP
30
60
00
D8
ENDCHAR
STARTCHAR Alphatonos
ENCODING 902
SWIDTH 500 0
DWIDTH 8 0
BBX 7 12 0 0
BITMAP
60
C0
1E
26
46
C6
C6
FE
C6
C6
C6
C6
ENDCHAR
STARTCHAR anoteleia
ENCODING 903
SWIDTH 500 0
DWIDTH 8 0
BBX 2 2 3 5
BITMAP
C0
C0
ENDCHAR
STARTCHAR Epsilontonos
ENCODING 904
SWIDTH 500 0
DWIDTH 8 0
BBX 7 12 0 0
BITMAP
60
C0
00
FE
C0
C0
C0
FC
C0
C0
C0
FE
ENDCHAR
STARTCHAR Etatonos
ENCODING 905
SWIDTH 500 0
DWIDTH 8 0
BBX 7 12 0 0
BITMAP
60
C0
00
C6
C6
C6
C6
FE
C6
C6
C6
C6
ENDCHAR
STARTCHAR Iotatonos
ENCODING 906
SWIDTH 500 0
DWIDTH 8 0
BBX 7 12 0 0
BITMAP
60
C0
3C
18
18
18
18
18
18
1A
1A
3E
ENDCHAR
STARTCHAR Omicrontonos
ENCODING 908
SWIDTH 500 0
DWIDTH 8 0
BBX 7 12 0 0
BITMAP
60
C0
FE
C6
C6
C6
C6
C6
C6
C6
C6
FE
ENDCHAR
STARTCHAR Upsilontonos
ENCODING 910
SWIDTH 500 0
DWIDTH 8 0
BBX 8 12 0 0
BITMAP
60
C0
00
C3
C3
66
66
3C
18
18
18
18
ENDCHAR
STARTCHAR Omegatonos
ENCODING 911
SWIDTH 500 0
DWIDTH 8 0
BBX 7 12 0 0
BITMAP
60
C0
FE
C6
C6
C6
C6
C6
C6
EE
6C
EE
ENDCHAR
STARTCHAR iotadieresistonos
ENCODING 912
SWIDTH 500 0
DWIDTH 8 0
BBX 6 12 0 0
BITMAP
18
30
D8
D8
00
70
30
30
30
34
34
3C
ENDCHAR
STARTCHAR Alpha
ENCODING 913
SWIDTH 500 0
DWIDTH 8 0
BBX 7 10 0 0
BITMAP
1E
26
46
C6
C6
FE
C6
C6
C6
C6
ENDCHAR
STARTCHAR Beta
ENCODING 914
SWIDTH 500 0
DWIDTH 8 0
BBX 7 10 0 0
BITMAP
FE
C6
C6
C6
FC
C6
C6
C6
C6
FE
ENDCHAR
STARTCHAR Gamma
ENCODING 915
SWIDTH 500 0
DWIDTH 8 0
BBX 7 10 0 0
BITMAP
FE
C6
C0
C0
C0
C0
C0
C0
C0
C0
ENDCHAR
STARTCHAR Delta
ENCODING 916
SWIDTH 500 0
DWIDTH 8 0
BBX 7 10 0 0
BITMAP
0E
16
26
46
C6
C6
C6
C6
C6
FE
ENDCHAR
STARTCHAR Epsilon
ENCODING 917
SWIDTH 500 0
DWIDTH 8 0
BBX 7 10 0 0
BITMAP
FE
C0
C0
C0
FC
C0
C0
C0
C0
FE
ENDCHAR
STARTCHAR Zeta
ENCODING 918
SWIDTH 500 0
DWIDTH 8 0
BBX 7 10 0 0
BITMAP
FE
06
06
0C
18
30
60
C0
C0
FE
ENDCHAR
STARTCHAR Eta
ENCODING 919
SWIDTH 500 0
DWIDTH 8 0
BBX 7 10 0 0
BITMAP
C6
C6
C6
C6
FE
C6
C6
C6
C6
C6
ENDCHAR
STARTCHAR Theta
ENCODING 920
SWIDTH 500 0
DWIDTH 8 0
BBX 7 10 0 0
BITMAP
FE
C6
C6
C6
D6
D6
C6
C6
C6
FE
ENDCHAR
STARTCHAR Iota
ENCODING 921
SWIDTH 500 0
DWIDTH 8 0
BBX 5 10 2 0
BITMAP
F0
60
60
60
60
60
60
68
68
F8
ENDCHAR
STARTCHAR Kappa
ENCODING 922
SWIDTH 500 0
DWIDTH 8 0
BBX 7 10 0 0
BITMAP
C6
CC
D8
F0
E0
FE
C6
C6
C6
C6
ENDCHAR
STARTCHAR Lambda
ENCODING 923
SWIDTH 500 0
DWIDTH 8 0
BBX 7 10 0 0
BITMAP
10
10
38
38
6C
6C
6C
C6
C6
C6
ENDCHAR
STARTCHAR Mu
ENCODING 924
SWIDTH 500 0
DWIDTH 8 0
BBX 7 10 0 0
BITMAP
FE
D6
D6
D6
D6
D6
D6
C6
C6
C6
ENDCHAR
STARTCHAR Nu
ENCODING 925
SWIDTH 500 0
DWIDTH 8 0
BBX 7 10 0 0
BITMAP
CE
D6
E6
C6
C6
C6
C6
C6
C6
C6
ENDCHAR
STARTCHAR Xi
ENCODING 926
SWIDTH 500 0
DWIDTH 8 0
BBX 7 10 0 0
BITMAP
FE
00
00
00
7C
00
00
00
00
FE
ENDCHAR
STARTCHAR Omicron
ENCODING 927
SWIDTH 500 0
DWIDTH 8 0
BBX 7 10 0 0
BITMAP
FE
C6
C6
C6
C6
C6
C6
C6
C6
FE
ENDCHAR
STARTCHAR Pi
ENCODING 928
SWIDTH 500 0
DWIDTH 8 0
BBX 7 10 0 0
BITMAP
FE
C6
C6
C6
C6
C6
C6
C6
C6
C6
ENDCHAR
STARTCHAR Rho
ENCODING 929
SWIDTH 500 0
DWIDTH 8 0
BBX 7 10 0 0
BITMAP
FE
C6
C6
C6
C6
FE
C0
C0
C0
C0
ENDCHAR
STARTCHAR Sigma
ENCODING 931
SWIDTH 500 0
DWIDTH 8 0
BBX 7 10 0 0
BITMAP
FE
C0
60
30
18
18
30
60
C0
FE
ENDCHAR
STARTCHAR Tau
ENCODING 932
SWIDTH 500 0
DWIDTH 8 0
BBX 8 10 0 0
BITMAP
FF
18
18
18
18
18
18
18
18
18
ENDCHAR
STARTCHAR Upsilon
ENCODING 933
SWIDTH 500 0
DWIDTH 8 0
BBX 8 10 0 0
BITMAP
C3
C3
66
66
3C
18
18
18
18
18
ENDCHAR
STARTCHAR Phi
ENCODING 934
SWIDTH 500 0
DWIDTH 8 0
BBX 7 10 0 0
BITMAP
10
FE
D6
D6
D6
D6
D6
D6
FE
10
ENDCHAR
STARTCHAR Chi
ENCODING 935
SWIDTH 500 0
DWIDTH 8 0
BBX 7 10 0 0
BITMAP
C6
C6
C6
6C
38
38
6C
C6
C6
C6
ENDCHAR
STARTCHAR Psi
ENCODING 936
SWIDTH 500 0
DWIDTH 8 0
BBX 7 10 0 0
BITMAP
D6
D6
D6
D6
D6
D6
D6
FE
10
10
ENDCHAR
STARTCHAR Omega
ENCODING 937
SWIDTH 500 0
DWIDTH 8 0
BBX 7 10 0 0
BITMAP
FE
C6
C6
C6
C6
C6
C6
EE
6C
EE
ENDCHAR
STARTCHAR Iotadieresis
ENCODING 938
SWIDTH 500 0
DWIDTH 8 0
BBX 6 12 1 0
BITMAP
CC
CC
00
78
30
30
30
30
30
34
34
7C
ENDCHAR
STARTCHAR Upsilondieresis
ENCODING 939
SWIDTH 500 0
DWIDTH 8 0
BBX 8 12 0 0
BITMAP
66
66
00
C3
C3
66
66
3C
18
18
18
18
ENDCHAR
STARTCHAR alphatonos
ENCODING 940
SWIDTH 500 0
DWIDTH 8 0
BBX 7 10 0 0
BITMAP
18
30
00
FA
CC
CC
CC
CC
CC
FA
ENDCHAR
STARTCHAR epsilontonos
ENCODING 941
SWIDTH 500 0
DWIDTH 8 0
BBX 7 10 0 0
BITMAP
18
30
00
FE
C6
C0
78
C0
C6
FE
ENDCHAR
STARTCHAR etatonos
ENCODING 942
SWIDTH 500 0
DWIDTH 8 0
BBX 7 13 0 -3
BITMAP
18
30
00
DE
E6
C6
C6
C6
C6
C6
06
06
06
ENDCHAR
STARTCHAR iotatonos
ENCODING 943
SWIDTH 500 0
DWIDTH 8 0
BBX 5 10 1 0
BITMAP
30
60
00
E0
60
60
60
68
68
78
ENDCHAR
STARTCHAR upsilondieresistonos
ENCODING 944
SWIDTH 500 0
DWIDTH 8 0
BBX 7 12 0 0
BITMAP
18
30
00
6C
00
C6
C6
C6
C6
C6
C6
FE
ENDCHAR
STARTCHAR alpha
ENCODING 945
SWIDTH 500 0
DWIDTH 8 0
BBX 7 7 0 0
BITMAP
FA
CC
CC
CC
CC
CC
FA
ENDCHAR
STARTCHAR beta
ENCODING 946
SWIDTH 500 0
DWIDTH 8 0
BBX 7 13 0 -3
BITMAP
FC
CC
CC
CC
FE
C6
C6
C6
C6
FE
C0
C0
C0
ENDCHAR
STARTCHAR gamma
ENCODING 947
SWIDTH 500 0
DWIDTH 8 0
BBX 8 10 0 -3
BITMAP
C3
C3
66
66
3C
3C
18
18
18
18
ENDCHAR
STARTCHAR delta
ENCODING 948
SWIDTH 500 0
DWIDTH 8 0
BBX 7 10 0 0
BITMAP
7E
30
18
FE
C6
C6
C6
C6
C6
FE
ENDCHAR
STARTCHAR epsilon
ENCODING 949
SWIDTH 500 0
DWIDTH 8 0
BBX 7 7 0 0
BITMAP
FE
C6
C0
78
C0
C6
FE
ENDCHAR
STARTCHAR zeta
ENCODING 950
SWIDTH 500 0
DWIDTH 8 0
BBX 7 13 0 -3
BITMAP
FE
0C
18
30
60
C0
C0
C0
C0
FE
06
06
0E
ENDCHAR
STARTCHAR eta
ENCODING 951
SWIDTH 500 0
DWIDTH 8 0
BBX 7 10 0 -3
BITMAP
DE
E6
C6
C6
C6
C6
C6
06
06
06
ENDCHAR
STARTCHAR theta
ENCODING 952
SWIDTH 500 0
DWIDTH 8 0
BBX 6 10 1 0
BITMAP
FC
CC
CC
CC
FC
CC
CC
CC
CC
FC
ENDCHAR
STARTCHAR iota
ENCODING 953
SWIDTH 500 0
DWIDTH 8 0
BBX 5 7 1 0
BITMAP
E0
60
60
60
68
68
78
ENDCHAR
STARTCHAR kappa
ENCODING 954
SWIDTH 500 0
DWIDTH 8 0
BBX 7 10 0 0
BITMAP
C0
C0
C0
C6
CC
D8
FE
C6
C6
C6
ENDCHAR
STARTCHAR lambda
ENCODING 955
SWIDTH 500 0
DWIDTH 8 0
BBX 8 10 0 0
BITMAP
30
30
18
18
3C
3C
66
66
C3
C3
ENDCHAR
STARTCHAR mugreek
ENCODING 956
SWIDTH 500 0
DWIDTH 8 0
BBX 7 10 0 -3
BITMAP
C6
C6
C6
C6
C6
CE
F6
C0
C0
C0
ENDCHAR
STARTCHAR nu
ENCODING 957
SWIDTH 500 0
DWIDTH 8 0
BBX 6 7 1 0
BITMAP
CC
CC
CC
CC
D8
F0
E0
ENDCHAR
STARTCHAR xi
ENCODING 958
SWIDTH 500 0
DWIDTH 8 0
BBX 7 13 0 -3
BITMAP
FE
C0
C0
C0
7C
C0
C0
C0
C0
FE
06
06
0E
ENDCHAR
STARTCHAR omicron
ENCODING 959
SWIDTH 500 0
DWIDTH 8 0
BBX 7 7 0 0
BITMAP
FE
C6
C6
C6
C6
C6
FE
ENDCHAR
STARTCHAR pi
ENCODING 960
SWIDTH 500 0
DWIDTH 8 0
BBX 7 7 0 0
BITMAP
FE
C6
C6
C6
C6
C6
C6
ENDCHAR
STARTCHAR rho
ENCODING 961
SWIDTH 500 0
DWIDTH 8 0
BBX 8 10 0 -3
BITMAP
7F
63
63
63
63
63
7F
60
60
E0
ENDCHAR
STARTCHAR sigma1
ENCODING 962
SWIDTH 500 0
DWIDTH 8 0
BBX 7 10 0 -3
BITMAP
FE
C0
C0
C0
C0
C0
FE
06
06
0E
ENDCHAR
STARTCHAR sigma
ENCODING 963
SWIDTH 500 0
DWIDTH 8 0
BBX 7 7 1 0
BITMAP
FE
D8
CC
CC
CC
CC
FC
ENDCHAR
STARTCHAR tau
ENCODING 964
SWIDTH 500 0
DWIDTH 8 0
BBX 8 7 0 0
BITMAP
FF
18
18
18
18
18
1E
ENDCHAR
STARTCHAR upsilon
ENCODING 965
SWIDTH 500 0
DWIDTH 8 0
BBX 7 7 0 0
BITMAP
C6
C6
C6
C6
C6
C6
FE
ENDCHAR
STARTCHAR phi
ENCODING 966
SWIDTH 500 0
DWIDTH 8 0
BBX 7 10 0 -3
BITMAP
DE
D6
D6
D6
D6
D6
FE
10
10
10
ENDCHAR
STARTCHAR chi
ENCODING 967
SWIDTH 500 0
DWIDTH 8 0
BBX 7 10 0 -3
BITMAP
C6
C6
C6
6C
38
38
6C
C6
C6
C6
ENDCHAR
STARTCHAR psi
ENCODING 968
SWIDTH 500 0
DWIDTH 8 0
BBX 7 10 0 -3
BITMAP
D6
D6
D6
D6
D6
D6
FE
10
10
10
ENDCHAR
STARTCHAR omega
ENCODING 969
SWIDTH 500 0
DWIDTH 8 0
BBX 7 7 0 0
BITMAP
C6
C6
D6
D6
D6
D6
EE
ENDCHAR
STARTCHAR iotadieresis
ENCODING 970
SWIDTH 500 0
DWIDTH 8 0
BBX 6 10 0 0
BITMAP
D8
D8
00
70
30
30
30
34
34
3C
ENDCHAR
STARTCHAR upsilondieresis
ENCODING 971
SWIDTH 500 0
DWIDTH 8 0
BBX 7 10 0 0
BITMAP
6C
6C
00
C6
C6
C6
C6
C6
C6
FE
ENDCHAR
STARTCHAR omicrontonos
ENCODING 972
SWIDTH 500 0
DWIDTH 8 0
BBX 7 10 0 0
BITMAP
18
30
00
FE
C6
C6
C6
C6
C6
FE
ENDCHAR
STARTCHAR upsilontonos
ENCODING 973
SWIDTH 500 0
DWIDTH 8 0
BBX 7 10 0 0
BITMAP
18
30
00
C6
C6
C6
C6
C6
C6
FE
ENDCHAR
STARTCHAR omegatonos
ENCODING 974
SWIDTH 500 0
DWIDTH 8 0
BBX 7 10 0 0
BITMAP
18
30
00
C6
C6
D6
D6
D6
D6
EE
ENDCHAR
STARTCHAR uni0400
ENCODING 1024
SWIDTH 500 0
DWIDTH 8 0
BBX 7 12 0 0
BITMAP
30
18
00
FE
C0
C0
C0
FC
C0
C0
C0
FE
ENDCHAR
STARTCHAR afii10023
ENCODING 1025
SWIDTH 500 0
DWIDTH 8 0
BBX 7 12 0 0
BITMAP
6C
6C
00
FE
C0
C0
C0
FC
C0
C0
C0
FE
ENDCHAR
STARTCHAR afii10051
ENCODING 1026
SWIDTH 500 0
DWIDTH 8 0
BBX 7 12 0 -2
BITMAP
F0
60
60
7E
66
66
66
66
66
66
06
0C
ENDCHAR
STARTCHAR afii10052
ENCODING 1027
SWIDTH 500 0
DWIDTH 8 0
BBX 7 12 0 0
BITMAP
18
30
00
FE
C6
C0
C0
C0
C0
C0
C0
C0
ENDCHAR
STARTCHAR afii10053
ENCODING 1028
SWIDTH 500 0
DWIDTH 8 0
BBX 7 10 0 0
BITMAP
FE
C6
C0
C0
F8
C0
C0
C0
C6
FE
ENDCHAR
STARTCHAR afii10054
ENCODING 1029
SWIDTH 500 0
DWIDTH 8 0
BBX 7 10 0 0
BITMAP
FE
C6
C0
C0
FE
06
06
C6
C6
FE
ENDCHAR
STARTCHAR afii10055
ENCODING 1030
SWIDTH 500 0
DWIDTH 8 0
BBX 5 10 2 0
BITMAP
F0
60
60
60
60
60
60
68
68
F8
ENDCHAR
STARTCHAR afii10056
ENCODING 1031
SWIDTH 500 0
DWIDTH 8 0
BBX 6 12 1 0
BITMAP
CC
CC
00
78
30
30
30
30
30
34
34
7C
ENDCHAR
STARTCHAR afii10057
ENCODING 1032
SWIDTH 500 0
DWIDTH 8 0
BBX 7 10 0 0
BITMAP
1E
0C
0C
0C
0C
0C
0C
0C
CC
FC
ENDCHAR
STARTCHAR afii10058
ENCODING 1033
SWIDTH 500 0
DWIDTH 8 0
BBX 7 10 0 0
BITMAP
10
30
70
DE
D6
D6
D6
D6
D6
DE
ENDCHAR
STARTCHAR afii10059
ENCODING 1034
SWIDTH 500 0
DWIDTH 8 0
BBX 7 10 0 0
BITMAP
D0
D0
D0
DE
F6
D6
D6
D6
D6
DE
ENDCHAR
STARTCHAR afii10060
ENCODING 1035
SWIDTH 500 0
DWIDTH 8 0
BBX 7 10 0 0
BITMAP
F0
60
60
7E
66
66
66
66
66
66
ENDCHAR
STARTCHAR afii10061
ENCODING 1036
SWIDTH 500 0
DWIDTH 8 0
BBX 7 12 0 0
BITMAP
18
30
C6
CC
D8
F0
E0
FE
C6
C6
C6
C6
ENDCHAR
STARTCHAR uni040D
ENCODING 1037
SWIDTH 500 0
DWIDTH 8 0
BBX 7 12 0 0
BITMAP
30
18
C6
C6
C6
C6
C6
C6
C6
CE
D6
E6
ENDCHAR
STARTCHAR afii10062
ENCODING 1038
SWIDTH 500 0
DWIDTH 8 0
BBX 7 12 0 0
BITMAP
6C
7C
C6
C6
C6
C6
C6
FE
06
06
06
7E
ENDCHAR
STARTCHAR afii10145
ENCODING 1039
SWIDTH 500 0
DWIDTH 8 0
BBX 7 12 0 -2
BITMAP
C6
C6
C6
C6
C6
C6
C6
C6
C6
FE
38
38
ENDCHAR
STARTCHAR afii10017
ENCODING 1040
SWIDTH 500 0
DWIDTH 8 0
BBX 7 10 0 0
BITMAP
1E
26
46
C6
C6
FE
C6
C6
C6
C6
ENDCHAR
STARTCHAR afii10018
ENCODING 1041
SWIDTH 500 0
DWIDTH 8 0
BBX 7 10 0 0
BITMAP
FC
C0
C0
FE
C6
C6
C6
C6
C6
FE
ENDCHAR
STARTCHAR afii10019
ENCODING 1042
SWIDTH 500 0
DWIDTH 8 0
BBX 7 10 0 0
BITMAP
FE
C6
C6
C6
FC
C6
C6
C6
C6
FE
ENDCHAR
STARTCHAR afii10020
ENCODING 1043
SWIDTH 500 0
DWIDTH 8 0
BBX 7 10 0 0
BITMAP
FE
C6
C0
C0
C0
C0
C0
C0
C0
C0
ENDCHAR
STARTCHAR D
ENCODING 1044
SWIDTH 500 0
DWIDTH 8 0
BBX 7 10 0 0
BITMAP
F0
D8
CC
C6
C6
C6
C6
C6
C6
FC
ENDCHAR
STARTCHAR afii10022
ENCODING 1045
SWIDTH 500 0
DWIDTH 8 0
BBX 7 10 0 0
BITMAP
FE
C0
C0
C0
FC
C0
C0
C0
C0
FE
ENDCHAR
STARTCHAR afii10024
ENCODING 1046
SWIDTH 500 0
DWIDTH 8 0
BBX 7 10 0 0
BITMAP
D6
D6
D6
D6
FE
D6
D6
D6
D6
D6
ENDCHAR
STARTCHAR afii10025
ENCODING 1047
SWIDTH 500 0
DWIDTH 8 0
BBX 7 10 0 0
BITMAP
FE
C6
06
0C
3C
06
06
06
C6
FE
ENDCHAR
STARTCHAR afii10026
ENCODING 1048
SWIDTH 500 0
DWIDTH 8 0
BBX 7 10 0 0
BITMAP
C6
C6
C6
C6
C6
C6
C6
CE
D6
E6
ENDCHAR
STARTCHAR afii10027
ENCODING 1049
SWIDTH 500 0
DWIDTH 8 0
BBX 7 12 0 0
BITMAP
6C
7C
C6
C6
C6
C6
C6
C6
C6
CE
D6
E6
ENDCHAR
STARTCHAR afii10028
ENCODING 1050
SWIDTH 500 0
DWIDTH 8 0
BBX 7 10 0 0
BITMAP
C6
CC
D8
F0
E0
FE
C6
C6
C6
C6
ENDCHAR
STARTCHAR afii10029
ENCODING 1051
SWIDTH 500 0
DWIDTH 8 0
BBX 6 10 1 0
BITMAP
1C
3C
6C
CC
CC
CC
CC
CC
CC
CC
ENDCHAR
STARTCHAR afii10030
ENCODING 1052
SWIDTH 500 0
DWIDTH 8 0
BBX 7 10 0 0
BITMAP
FE
D6
D6
D6
D6
D6
D6
C6
C6
C6
ENDCHAR
STARTCHAR afii10031
ENCODING 1053
SWIDTH 500 0
DWIDTH 8 0
BBX 7 10 0 0
BITMAP
C6
C6
C6
C6
FE
C6
C6
C6
C6
C6
ENDCHAR
STARTCHAR afii10032
ENCODING 1054
SWIDTH 500 0
DWIDTH 8 0
BBX 7 10 0 0
BITMAP
FE
C6
C6
C6
C6
C6
C6
C6
C6
FE
ENDCHAR
STARTCHAR afii10033
ENCODING 1055
SWIDTH 500 0
DWIDTH 8 0
BBX 7 10 0 0
BITMAP
FE
C6
C6
C6
C6
C6
C6
C6
C6
C6
ENDCHAR
STARTCHAR afii10034
ENCODING 1056
SWIDTH 500 0
DWIDTH 8 0
BBX 7 10 0 0
BITMAP
FE
C6
C6
C6
C6
FE
C0
C0
C0
C0
ENDCHAR
STARTCHAR afii10035
ENCODING 1057
SWIDTH 500 0
DWIDTH 8 0
BBX 7 10 0 0
BITMAP
FE
C6
C0
C0
C0
C0
C0
C0
C6
FE
ENDCHAR
STARTCHAR afii10036
ENCODING 1058
SWIDTH 500 0
DWIDTH 8 0
BBX 8 10 0 0
BITMAP
FF
18
18
18
18
18
18
18
18
18
ENDCHAR
STARTCHAR afii10037
ENCODING 1059
SWIDTH 500 0
DWIDTH 8 0
BBX 7 10 0 0
BITMAP
C6
C6
C6
C6
C6
FE
06
06
06
7E
ENDCHAR
STARTCHAR afii10038
ENCODING 1060
SWIDTH 500 0
DWIDTH 8 0
BBX 7 12 0 -1
BITMAP
10
FE
D6
D6
D6
D6
D6
D6
D6
D6
FE
10
ENDCHAR
STARTCHAR afii10039
ENCODING 1061
SWIDTH 500 0
DWIDTH 8 0
BBX 7 10 0 0
BITMAP
C6
C6
C6
6C
38
38
6C
C6
C6
C6
ENDCHAR
STARTCHAR afii10040
ENCODING 1062
SWIDTH 500 0
DWIDTH 8 0
BBX 8 12 0 -2
BITMAP
C6
C6
C6
C6
C6
C6
C6
C6
C6
FF
03
0F
ENDCHAR
STARTCHAR afii10041
ENCODING 1063
SWIDTH 500 0
DWIDTH 8 0
BBX 7 10 0 0
BITMAP
C6
C6
C6
C6
C6
FE
06
06
06
06
ENDCHAR
STARTCHAR afii10042
ENCODING 1064
SWIDTH 500 0
DWIDTH 8 0
BBX 7 10 0 0
BITMAP
C6
C6
C6
D6
D6
D6
D6
D6
D6
FE
ENDCHAR
STARTCHAR afii10043
ENCODING 1065
SWIDTH 500 0
DWIDTH 8 0
BBX 8 12 0 -2
BITMAP
C6
C6
C6
D6
D6
D6
D6
D6
D6
FF
03
0F
ENDCHAR
STARTCHAR afii10044
ENCODING 1066
SWIDTH 500 0
DWIDTH 8 0
BBX 7 10 0 0
BITMAP
E0
60
60
7E
66
66
66
66
66
7E
ENDCHAR
STARTCHAR afii10045
ENCODING 1067
SWIDTH 500 0
DWIDTH 8 0
BBX 7 10 0 0
BITMAP
C6
C6
C6
F6
D6
D6
D6
D6
D6
F6
ENDCHAR
STARTCHAR afii10046
ENCODING 1068
SWIDTH 500 0
DWIDTH 8 0
BBX 6 10 1 0
BITMAP
C0
C0
C0
FC
CC
CC
CC
CC
CC
FC
ENDCHAR
STARTCHAR afii10047
ENCODING 1069
SWIDTH 500 0
DWIDTH 8 0
BBX 7 10 0 0
BITMAP
FE
C6
06
06
3E
06
06
06
C6
FE
ENDCHAR
STARTCHAR afii10048
ENCODING 1070
SWIDTH 500 0
DWIDTH 8 0
BBX 7 10 0 0
BITMAP
DE
D6
D6
D6
D6
F6
D6
D6
D6
DE
ENDCHAR
STARTCHAR afii10049
ENCODING 1071
SWIDTH 500 0
DWIDTH 8 0
BBX 7 10 0 0
BITMAP
FE
C6
C6
C6
C6
FE
66
66
C6
C6
ENDCHAR
STARTCHAR afii10065
ENCODING 1072
SWIDTH 500 0
DWIDTH 8 0
BBX 7 7 0 0
BITMAP
7E
06
FE
C6
C6
C6
FE
ENDCHAR
STARTCHAR afii10066
ENCODING 1073
SWIDTH 500 0
DWIDTH 8 0
BBX 7 9 0 0
BITMAP
FC
C0
C0
FE
C6
C6
C6
C6
FE
ENDCHAR
STARTCHAR afii10067
ENCODING 1074
SWIDTH 500 0
DWIDTH 8 0
BBX 7 10 0 0
BITMAP
F8
D8
D8
D8
FE
C6
C6
C6
C6
FE
ENDCHAR
STARTCHAR afii10068
ENCODING 1075
SWIDTH 500 0
DWIDTH 8 0
BBX 7 7 0 0
BITMAP
FE
C6
C0
C0
C0
C0
C0
ENDCHAR
STARTCHAR afii10069
ENCODING 1076
SWIDTH 500 0
DWIDTH 8 0
BBX 7 10 0 -3
BITMAP
FE
C6
C6
C6
C6
C6
FE
06
06
7E
ENDCHAR
STARTCHAR afii10070
ENCODING 1077
SWIDTH 500 0
DWIDTH 8 0
BBX 7 7 0 0
BITMAP
FE
C6
C6
FE
C0
C0
FC
ENDCHAR
STARTCHAR afii10072
ENCODING 1078
SWIDTH 500 0
DWIDTH 8 0
BBX 7 7 0 0
BITMAP
D6
D6
D6
FE
D6
D6
D6
ENDCHAR
STARTCHAR afii10073
ENCODING 1079
SWIDTH 500 0
DWIDTH 8 0
BBX 7 7 0 0
BITMAP
FE
06
06
3C
06
06
FE
ENDCHAR
STARTCHAR afii10074
ENCODING 1080
SWIDTH 500 0
DWIDTH 8 0
BBX 7 7 0 0
BITMAP
C6
C6
C6
C6
C6
CE
F6
ENDCHAR
STARTCHAR afii10075
ENCODING 1081
SWIDTH 500 0
DWIDTH 8 0
BBX 7 10 0 0
BITMAP
6C
7C
00
C6
C6
C6
C6
C6
CE
F6
ENDCHAR
STARTCHAR afii10076
ENCODING 1082
SWIDTH 500 0
DWIDTH 8 0
BBX 7 10 0 0
BITMAP
C0
C0
C0
C6
CC
D8
FE
C6
C6
C6
ENDCHAR
STARTCHAR afii10077
ENCODING 1083
SWIDTH 500 0
DWIDTH 8 0
BBX 6 7 1 0
BITMAP
1C
2C
4C
CC
CC
CC
CC
ENDCHAR
STARTCHAR afii10078
ENCODING 1084
SWIDTH 500 0
DWIDTH 8 0
BBX 7 7 0 0
BITMAP
FE
D6
D6
D6
D6
C6
C6
ENDCHAR
STARTCHAR afii10079
ENCODING 1085
SWIDTH 500 0
DWIDTH 8 0
BBX 7 7 0 0
BITMAP
C6
C6
C6
FE
C6
C6
C6
ENDCHAR
STARTCHAR afii10080
ENCODING 1086
SWIDTH 500 0
DWIDTH 8 0
BBX 7 7 0 0
BITMAP
FE
C6
C6
C6
C6
C6
FE
ENDCHAR
STARTCHAR afii10081
ENCODING 1087
SWIDTH 500 0
DWIDTH 8 0
BBX 7 7 0 0
BITMAP
FE
C6
C6
C6
C6
C6
C6
ENDCHAR
STARTCHAR afii10082
ENCODING 1088
SWIDTH 500 0
DWIDTH 8 0
BBX 7 10 0 -3
BITMAP
FE
C6
C6
C6
C6
C6
FE
C0
C0
C0
ENDCHAR
STARTCHAR afii10083
ENCODING 1089
SWIDTH 500 0
DWIDTH 8 0
BBX 7 7 0 0
BITMAP
FE
C0
C0
C0
C0
C0
FE
ENDCHAR
STARTCHAR afii10084
ENCODING 1090
SWIDTH 500 0
DWIDTH 8 0
BBX 8 7 0 0
BITMAP
FF
18
18
18
18
18
18
ENDCHAR
STARTCHAR afii10085
ENCODING 1091
SWIDTH 500 0
DWIDTH 8 0
BBX 7 10 0 -3
BITMAP
C6
C6
C6
C6
C6
C6
FE
06
06
7E
ENDCHAR
STARTCHAR afii10086
ENCODING 1092
SWIDTH 500 0
DWIDTH 8 0
BBX 7 9 0 -1
BITMAP
10
FE
D6
D6
D6
D6
D6
FE
10
ENDCHAR
STARTCHAR afii10087
ENCODING 1093
SWIDTH 500 0
DWIDTH 8 0
BBX 7 7 0 0
BITMAP
C6
C6
6C
38
6C
C6
C6
ENDCHAR
STARTCHAR afii10088
ENCODING 1094
SWIDTH 500 0
DWIDTH 8 0
BBX 8 9 0 -2
BITMAP
C6
C6
C6
C6
C6
C6
FF
03
0F
ENDCHAR
STARTCHAR afii10089
ENCODING 1095
SWIDTH 500 0
DWIDTH 8 0
BBX 7 7 0 0
BITMAP
C6
C6
C6
FE
06
06
06
ENDCHAR
STARTCHAR afii10090
ENCODING 1096
SWIDTH 500 0
DWIDTH 8 0
BBX 7 7 0 0
BITMAP
C6
C6
D6
D6
D6
D6
FE
ENDCHAR
STARTCHAR afii10091
ENCODING 1097
SWIDTH 500 0
DWIDTH 8 0
BBX 8 9 0 -2
BITMAP
C6
C6
D6
D6
D6
D6
FF
03
0F
ENDCHAR
STARTCHAR afii10092
ENCODING 1098
SWIDTH 500 0
DWIDTH 8 0
BBX 7 7 0 0
BITMAP
E0
60
7E
66
66
66
7E
ENDCHAR
STARTCHAR afii10093
ENCODING 1099
SWIDTH 500 0
DWIDTH 8 0
BBX 7 7 0 0
BITMAP
C6
C6
F6
D6
D6
D6
F6
ENDCHAR
STARTCHAR afii10094
ENCODING 1100
SWIDTH 500 0
DWIDTH 8 0
BBX 6 7 1 0
BITMAP
C0
C0
FC
CC
CC
CC
FC
ENDCHAR
STARTCHAR afii10095
ENCODING 1101
SWIDTH 500 0
DWIDTH 8 0
BBX 7 7 0 0
BITMAP
FE
C6
06
3E
06
C6
FE
ENDCHAR
STARTCHAR afii10096
ENCODING 1102
SWIDTH 500 0
DWIDTH 8 0
BBX 7 7 0 0
BITMAP
DE
D6
D6
F6
D6
D6
DE
ENDCHAR
STARTCHAR afii10097
ENCODING 1103
SWIDTH 500 0
DWIDTH 8 0
BBX 7 7 0 0
BITMAP
FE
C6
C6
FE
36
66
66
ENDCHAR
STARTCHAR uni0450
ENCODING 1104
SWIDTH 500 0
DWIDTH 8 0
BBX 7 10 0 0
BITMAP
30
18
00
FE
C6
C6
FE
C0
C0
FC
ENDCHAR
STARTCHAR afii10071
ENCODING 1105
SWIDTH 500 0
DWIDTH 8 0
BBX 7 10 0 0
BITMAP
6C
6C
00
FE
C6
C6
FE
C0
C0
FC
ENDCHAR
STARTCHAR afii10099
ENCODING 1106
SWIDTH 500 0
DWIDTH 8 0
BBX 7 12 0 -2
BITMAP
60
F8
60
7E
66
66
66
66
66
66
06
0C
ENDCHAR
STARTCHAR afii10100
ENCODING 1107
SWIDTH 500 0
DWIDTH 8 0
BBX 7 10 0 0
BITMAP
18
30
00
FE
C6
C0
C0
C0
C0
C0
ENDCHAR
STARTCHAR afii10101
ENCODING 1108
SWIDTH 500 0
DWIDTH 8 0
BBX 7 7 0 0
BITMAP
FE
C6
C0
F8
C0
C6
FE
ENDCHAR
STARTCHAR afii10102
ENCODING 1109
SWIDTH 500 0
DWIDTH 8 0
BBX 7 7 0 0
BITMAP
FE
C0
C0
FE
06
06
FE
ENDCHAR
STARTCHAR afii10103
ENCODING 1110
SWIDTH 500 0
DWIDTH 8 0
BBX 5 10 2 0
BITMAP
60
60
00
E0
60
60
60
68
68
F8
ENDCHAR
STARTCHAR afii10104
ENCODING 1111
SWIDTH 500 0
DWIDTH 8 0
BBX 6 10 1 0
BITMAP
D8
D8
00
70
30
30
30
34
34
7C
ENDCHAR
STARTCHAR afii10105
ENCODING 1112
SWIDTH 500 0
DWIDTH 8 0
BBX 6 13 1 -3
BITMAP
0C
0C
00
1C
0C
0C
0C
0C
0C
0C
0C
CC
FC
ENDCHAR
STARTCHAR afii10106
ENCODING 1113
SWIDTH 500 0
DWIDTH 8 0
BBX 7 7 0 0
BITMAP
30
70
DC
D6
D6
D6
DC
ENDCHAR
STARTCHAR afii10107
ENCODING 1114
SWIDTH 500 0
DWIDTH 8 0
BBX 7 7 0 0
BITMAP
D0
D0
DE
F6
D6
D6
DE
ENDCHAR
STARTCHAR afii10108
ENCODING 1115
SWIDTH 500 0
DWIDTH 8 0
BBX 7 10 0 0
BITMAP
60
F8
60
7E
66
66
66
66
66
66
ENDCHAR
STARTCHAR afii10109
ENCODING 1116
SWIDTH 500 0
DWIDTH 8 0
BBX 7 10 0 0
BITMAP
D8
F0
C0
C6
CC
D8
FE
C6
C6
C6
ENDCHAR
STARTCHAR uni045D
ENCODING 1117
SWIDTH 500 0
DWIDTH 8 0
BBX 7 10 0 0
BITMAP
30
18
00
C6
C6
C6
C6
C6
CE
F6
ENDCHAR
STARTCHAR afii10110
ENCODING 1118
SWIDTH 500 0
DWIDTH 8 0
BBX 7 13 0 -3
BITMAP
6C
7C
00
C6
C6
C6
C6
C6
C6
FE
06
06
7E
ENDCHAR
STARTCHAR afii10193
ENCODING 1119
SWIDTH 500 0
DWIDTH 8 0
BBX 7 9 0 -2
BITMAP
C6
C6
C6
C6
C6
C6
FE
38
38
ENDCHAR
STARTCHAR afii10044
ENCODING 1122
SWIDTH 500 0
DWIDTH 8 0
BBX 7 10 0 0
BITMAP
60
F8
60
7E
66
66
66
66
66
7E
ENDCHAR
STARTCHAR afii10092
ENCODING 1123
SWIDTH 500 0
DWIDTH 8 0
BBX 7 8 0 0
BITMAP
60
F8
60
7E
66
66
66
7E
ENDCHAR
STARTCHAR afii10050
ENCODING 1168
SWIDTH 500 0
DWIDTH 8 0
BBX 7 12 0 0
BITMAP
06
06
FE
C6
C0
C0
C0
C0
C0
C0
C0
C0
ENDCHAR
STARTCHAR afii10098
ENCODING 1169
SWIDTH 500 0
DWIDTH 8 0
BBX 7 9 0 0
BITMAP
06
06
FE
C6
C0
C0
C0
C0
C0
ENDCHAR
STARTCHAR uni0492
ENCODING 1170
SWIDTH 500 0
DWIDTH 8 0
BBX 8 10 0 0
BITMAP
7F
63
60
60
60
FC
60
60
60
60
ENDCHAR
STARTCHAR uni0493
ENCODING 1171
SWIDTH 500 0
DWIDTH 8 0
BBX 8 7 0 0
BITMAP
7F
63
60
FC
60
60
60
ENDCHAR
STARTCHAR uni0494
ENCODING 1172
SWIDTH 500 0
DWIDTH 8 0
BBX 7 12 0 -2
BITMAP
FE
C0
C0
C0
C0
FE
C6
C6
C6
C6
06
0C
ENDCHAR
STARTCHAR uni0495
ENCODING 1173
SWIDTH 500 0
DWIDTH 8 0
BBX 7 9 0 -2
BITMAP
FE
C0
C0
FC
CC
CC
CC
0C
18
ENDCHAR
STARTCHAR uni0496
ENCODING 1174
SWIDTH 500 0
DWIDTH 8 0
BBX 8 12 0 -2
BITMAP
D6
D6
D6
D6
FE
D6
D6
D6
D6
D7
03
03
ENDCHAR
STARTCHAR uni0497
ENCODING 1175
SWIDTH 500 0
DWIDTH 8 0
BBX 8 9 0 -2
BITMAP
D6
D6
D6
FE
D6
D6
D7
03
03
ENDCHAR
STARTCHAR uni0498
ENCODING 1176
SWIDTH 500 0
DWIDTH 8 0
BBX 7 13 0 -3
BITMAP
FE
C6
06
0C
3C
06
06
06
C6
FE
30
30
30
ENDCHAR
STARTCHAR uni0499
ENCODING 1177
SWIDTH 500 0
DWIDTH 8 0
BBX 7 10 0 -3
BITMAP
FE
06
06
3C
06
06
FE
30
30
30
ENDCHAR
STARTCHAR uni049A
ENCODING 1178
SWIDTH 500 0
DWIDTH 8 0
BBX 8 12 0 -2
BITMAP
C6
CC
D8
F0
E0
FE
C6
C6
C6
C7
03
03
ENDCHAR
STARTCHAR uni049B
ENCODING 1179
SWIDTH 500 0
DWIDTH 8 0
BBX 8 12 0 -2
BITMAP
C0
C0
C0
C6
CC
D8
FE
C6
C6
C7
03
03
ENDCHAR
STARTCHAR uni049C
ENCODING 1180
SWIDTH 500 0
DWIDTH 8 0
BBX 7 10 0 0
BITMAP
C6
C6
D6
DC
F8
FE
D6
D6
C6
C6
ENDCHAR
STARTCHAR uni049D
ENCODING 1181
SWIDTH 500 0
DWIDTH 8 0
BBX 7 10 0 0
BITMAP
C0
C0
C0
C6
D6
DC
FE
D6
D6
C6
ENDCHAR
STARTCHAR uni04A0
ENCODING 1184
SWIDTH 500 0
DWIDTH 8 0
BBX 8 10 0 0
BITMAP
E3
E6
6C
78
70
7F
63
63
63
63
ENDCHAR
STARTCHAR uni04A1
ENCODING 1185
SWIDTH 500 0
DWIDTH 8 0
BBX 8 10 0 0
BITMAP
E0
60
60
63
66
6C
7F
63
63
63
ENDCHAR
STARTCHAR uni04A2
ENCODING 1186
SWIDTH 500 0
DWIDTH 8 0
BBX 8 12 0 -2
BITMAP
C6
C6
C6
C6
FE
C6
C6
C6
C6
C7
03
03
ENDCHAR
STARTCHAR uni04A3
ENCODING 1187
SWIDTH 500 0
DWIDTH 8 0
BBX 8 9 0 -2
BITMAP
C6
C6
C6
FE
C6
C6
C7
03
03
ENDCHAR
STARTCHAR uni04A4
ENCODING 1188
SWIDTH 500 0
DWIDTH 8 0
BBX 7 10 0 0
BITMAP
DE
D8
D8
D8
F8
D8
D8
D8
D8
D8
ENDCHAR
STARTCHAR uni04A5
ENCODING 1189
SWIDTH 500 0
DWIDTH 8 0
BBX 7 7 0 0
BITMAP
DE
D8
D8
F8
D8
D8
D8
ENDCHAR
STARTCHAR uni04AA
ENCODING 1194
SWIDTH 500 0
DWIDTH 8 0
BBX 7 13 0 -3
BITMAP
FE
C6
C0
C0
C0
C0
C0
C0
C6
FE
30
30
30
ENDCHAR
STARTCHAR uni04AB
ENCODING 1195
SWIDTH 500 0
DWIDTH 8 0
BBX 7 10 0 -3
BITMAP
FE
C0
C0
C0
C0
C0
FE
30
30
30
ENDCHAR
STARTCHAR uni04AE
ENCODING 1198
SWIDTH 500 0
DWIDTH 8 0
BBX 8 10 0 0
BITMAP
C3
C3
66
66
3C
18
18
18
18
18
ENDCHAR
STARTCHAR uni04AF
ENCODING 1199
SWIDTH 500 0
DWIDTH 8 0
BBX 8 10 0 -3
BITMAP
C3
C3
66
66
3C
3C
18
18
18
18
ENDCHAR
STARTCHAR uni04B0
ENCODING 1200
SWIDTH 500 0
DWIDTH 8 0
BBX 8 10 0 0
BITMAP
C3
C3
66
66
3C
18
7E
18
18
18
ENDCHAR
STARTCHAR uni04B1
ENCODING 1201
SWIDTH 500 0
DWIDTH 8 0
BBX 8 10 0 -3
BITMAP
C3
C3
66
66
3C
3C
18
7E
18
18
ENDCHAR
STARTCHAR uni04B2
ENCODING 1202
SWIDTH 500 0
DWIDTH 8 0
BBX 8 12 0 -2
BITMAP
C6
C6
C6
6C
38
38
6C
C6
C6
C7
03
03
ENDCHAR
STARTCHAR uni04B3
ENCODING 1203
SWIDTH 500 0
DWIDTH 8 0
BBX 8 9 0 -2
BITMAP
C6
C6
6C
38
6C
C6
C7
03
03
ENDCHAR
STARTCHAR uni04B6
ENCODING 1206
SWIDTH 500 0
DWIDTH 8 0
BBX 8 12 0 -2
BITMAP
C6
C6
C6
C6
C6
FE
06
06
06
07
03
03
ENDCHAR
STARTCHAR uni04B7
ENCODING 1207
SWIDTH 500 0
DWIDTH 8 0
BBX 8 9 0 -2
BITMAP
C6
C6
C6
FE
06
06
07
03
03
ENDCHAR
STARTCHAR uni04B8
ENCODING 1208
SWIDTH 500 0
DWIDTH 8 0
BBX 7 10 0 0
BITMAP
C6
C6
C6
D6
D6
FE
16
16
06
06
ENDCHAR
STARTCHAR uni04B9
ENCODING 1209
SWIDTH 500 0
DWIDTH 8 0
BBX 7 7 0 0
BITMAP
C6
C6
D6
FE
16
06
06
ENDCHAR
STARTCHAR uni04BA
ENCODING 1210
SWIDTH 500 0
DWIDTH 8 0
BBX 7 10 0 0
BITMAP
C0
C0
C0
C0
FE
C6
C6
C6
C6
C6
ENDCHAR
STARTCHAR uni04BB
ENCODING 1211
SWIDTH 500 0
DWIDTH 8 0
BBX 7 7 0 0
BITMAP
C0
C0
FE
C6
C6
C6
C6
ENDCHAR
STARTCHAR uni04D0
ENCODING 1232
SWIDTH 500 0
DWIDTH 8 0
BBX 7 12 0 0
BITMAP
6C
7C
00
1E
26
46
C6
FE
C6
C6
C6
C6
ENDCHAR
STARTCHAR uni04D1
ENCODING 1233
SWIDTH 500 0
DWIDTH 8 0
BBX 7 10 0 0
BITMAP
6C
7C
00
7E
06
FE
C6
C6
C6
FE
ENDCHAR
STARTCHAR uni04D2
ENCODING 1234
SWIDTH 500 0
DWIDTH 8 0
BBX 7 12 0 0
BITMAP
6C
6C
00
1E
26
46
C6
FE
C6
C6
C6
C6
ENDCHAR
STARTCHAR uni04D3
ENCODING 1235
SWIDTH 500 0
DWIDTH 8 0
BBX 7 10 0 0
BITMAP
6C
6C
00
7E
06
FE
C6
C6
C6
FE
ENDCHAR
STARTCHAR uni04D4
ENCODING 1236
SWIDTH 500 0
DWIDTH 8 0
BBX 7 10 0 0
BITMAP
3E
58
D8
D8
FE
D8
D8
D8
D8
DE
ENDCHAR
STARTCHAR uni04D5
ENCODING 1237
SWIDTH 500 0
DWIDTH 8 0
BBX 7 7 0 0
BITMAP
7E
16
16
FE
D0
D0
FC
ENDCHAR
STARTCHAR uni04D6
ENCODING 1238
SWIDTH 500 0
DWIDTH 8 0
BBX 7 12 0 0
BITMAP
6C
7C
00
FE
C0
C0
C0
FC
C0
C0
C0
FE
ENDCHAR
STARTCHAR uni04D7
ENCODING 1239
SWIDTH 500 0
DWIDTH 8 0
BBX 7 10 0 0
BITMAP
6C
7C
00
FE
C6
C6
FE
C0
C0
FC
ENDCHAR
STARTCHAR uni04D8
ENCODING 1240
SWIDTH 500 0
DWIDTH 8 0
BBX 7 10 0 0
BITMAP
7E
06
06
06
FE
C6
C6
C6
C6
FE
ENDCHAR
STARTCHAR afii10846
ENCODING 1241
SWIDTH 500 0
DWIDTH 8 0
BBX 7 7 0 0
BITMAP
7E
06
06
FE
C6
C6
FE
ENDCHAR
STARTCHAR uni04DA
ENCODING 1242
SWIDTH 500 0
DWIDTH 8 0
BBX 7 12 0 0
BITMAP
6C
6C
00
7E
06
06
06
FE
C6
C6
C6
FE
ENDCHAR
STARTCHAR uni04DB
ENCODING 1243
SWIDTH 500 0
DWIDTH 8 0
BBX 7 10 0 0
BITMAP
6C
6C
00
7E
06
06
FE
C6
C6
FE
ENDCHAR
STARTCHAR uni04DC
ENCODING 1244
SWIDTH 500 0
DWIDTH 8 0
BBX 7 12 0 0
BITMAP
6C
6C
00
D6
D6
D6
D6
FE
D6
D6
D6
D6
ENDCHAR
STARTCHAR uni04DD
ENCODING 1245
SWIDTH 500 0
DWIDTH 8 0
BBX 7 10 0 0
BITMAP
6C
6C
00
D6
D6
D6
FE
D6
D6
D6
ENDCHAR
STARTCHAR uni04DE
ENCODING 1246
SWIDTH 500 0
DWIDTH 8 0
BBX 7 12 0 0
BITMAP
6C
6C
00
FE
C6
06
0C
3C
06
06
C6
FE
ENDCHAR
STARTCHAR uni04DF
ENCODING 1247
SWIDTH 500 0
DWIDTH 8 0
BBX 7 10 0 0
BITMAP
6C
6C
00
FE
06
06
3C
06
06
FE
ENDCHAR
STARTCHAR uni04E2
ENCODING 1250
SWIDTH 500 0
DWIDTH 8 0
BBX 7 12 0 0
BITMAP
7C
00
C6
C6
C6
C6
C6
C6
C6
CE
D6
E6
ENDCHAR
STARTCHAR uni04E3
ENCODING 1251
SWIDTH 500 0
DWIDTH 8 0
BBX 7 9 0 0
BITMAP
7C
00
C6
C6
C6
C6
C6
CE
F6
ENDCHAR
STARTCHAR uni04E4
ENCODING 1252
SWIDTH 500 0
DWIDTH 8 0
BBX 7 12 0 0
BITMAP
6C
6C
00
C6
C6
C6
C6
C6
C6
CE
D6
E6
ENDCHAR
STARTCHAR uni04E5
ENCODING 1253
SWIDTH 500 0
DWIDTH 8 0
BBX 7 10 0 0
BITMAP
6C
6C
00
C6
C6
C6
C6
C6
CE
F6
ENDCHAR
STARTCHAR uni04E6
ENCODING 1254
SWIDTH 500 0
DWIDTH 8 0
BBX 7 12 0 0
BITMAP
6C
6C
00
FE
C6
C6
C6
C6
C6
C6
C6
FE
ENDCHAR
STARTCHAR uni04E7
ENCODING 1255
SWIDTH 500 0
DWIDTH 8 0
BBX 7 10 0 0
BITMAP
6C
6C
00
FE
C6
C6
C6
C6
C6
FE
ENDCHAR
STARTCHAR uni04E8
ENCODING 1256
SWIDTH 500 0
DWIDTH 8 0
BBX 7 10 0 0
BITMAP
FE
C6
C6
C6
FE
C6
C6
C6
C6
FE
ENDCHAR
STARTCHAR uni04E9
ENCODING 1257
SWIDTH 500 0
DWIDTH 8 0
BBX 7 7 0 0
BITMAP
FE
C6
C6
FE
C6
C6
FE
ENDCHAR
STARTCHAR uni04EA
ENCODING 1258
SWIDTH 500 0
DWIDTH 8 0
BBX 7 12 0 0
BITMAP
6C
6C
00
FE
C6
C6
C6
FE
C6
C6
C6
FE
ENDCHAR
STARTCHAR uni04EB
ENCODING 1259
SWIDTH 500 0
DWIDTH 8 0
BBX 7 10 0 0
BITMAP
6C
6C
00
FE
C6
C6
FE
C6
C6
FE
ENDCHAR
STARTCHAR uni04EC
ENCODING 1260
SWIDTH 500 0
DWIDTH 8 0
BBX 7 12 0 0
BITMAP
6C
6C
00
FE
C6
06
06
3E
06
06
C6
FE
ENDCHAR
STARTCHAR uni04ED
ENCODING 1261
SWIDTH 500 0
DWIDTH 8 0
BBX 7 10 0 0
BITMAP
6C
6C
00
FE
C6
06
3E
06
C6
FE
ENDCHAR
STARTCHAR uni04EE
ENCODING 1262
SWIDTH 500 0
DWIDTH 8 0
BBX 7 12 0 0
BITMAP
7C
00
C6
C6
C6
C6
C6
FE
06
06
06
7E
ENDCHAR
STARTCHAR uni04EF
ENCODING 1263
SWIDTH 500 0
DWIDTH 8 0
BBX 7 12 0 -3
BITMAP
7C
00
C6
C6
C6
C6
C6
C6
FE
06
06
7E
ENDCHAR
STARTCHAR uni04F0
ENCODING 1264
SWIDTH 500 0
DWIDTH 8 0
BBX 7 12 0 0
BITMAP
6C
6C
00
C6
C6
C6
C6
FE
06
06
06
7E
ENDCHAR
STARTCHAR uni04F1
ENCODING 1265
SWIDTH 500 0
DWIDTH 8 0
BBX 7 13 0 -3
BITMAP
6C
6C
00
C6
C6
C6
C6
C6
C6
FE
06
06
7E
ENDCHAR
STARTCHAR uni04F2
ENCODING 1266
SWIDTH 500 0
DWIDTH 8 0
BBX 7 12 0 0
BITMAP
36
6C
00
C6
C6
C6
C6
FE
06
06
06
7E
ENDCHAR
STARTCHAR uni04F3
ENCODING 1267
SWIDTH 500 0
DWIDTH 8 0
BBX 7 13 0 -3
BITMAP
36
6C
00
C6
C6
C6
C6
C6
C6
FE
06
06
7E
ENDCHAR
STARTCHAR uni04F4
ENCODING 1268
SWIDTH 500 0
DWIDTH 8 0
BBX 7 12 0 0
BITMAP
6C
6C
00
C6
C6
C6
C6
FE
06
06
06
06
ENDCHAR
STARTCHAR uni04F5
ENCODING 1269
SWIDTH 500 0
DWIDTH 8 0
BBX 7 10 0 0
BITMAP
6C
6C
00
C6
C6
C6
FE
06
06
06
ENDCHAR
STARTCHAR uni04F8
ENCODING 1272
SWIDTH 500 0
DWIDTH 8 0
BBX 7 12 0 0
BITMAP
6C
6C
00
C6
C6
C6
F6
D6
D6
D6
D6
F6
ENDCHAR
STARTCHAR uni04F9
ENCODING 1273
SWIDTH 500 0
DWIDTH 8 0
BBX 7 10 0 0
BITMAP
6C
6C
00
C6
C6
F6
D6
D6
D6
F6
ENDCHAR
STARTCHAR Klinebelow
ENCODING 7732
SWIDTH 500 0
DWIDTH 8 0
BBX 7 12 0 -2
BITMAP
C6
CC
D8
F0
E0
FE
C6
C6
C6
C6
00
7C
ENDCHAR
STARTCHAR klinebelow
ENCODING 7733
SWIDTH 500 0
DWIDTH 8 0
BBX 7 12 0 -2
BITMAP
C0
C0
C0
C6
CC
D8
FE
C6
C6
C6
00
7C
ENDCHAR
STARTCHAR Edotbelow
ENCODING 7864
SWIDTH 500 0
DWIDTH 8 0
BBX 7 13 0 -3
BITMAP
FE
C0
C0
C0
FC
C0
C0
C0
C0
FE
00
18
18
ENDCHAR
STARTCHAR edotbelow
ENCODING 7865
SWIDTH 500 0
DWIDTH 8 0
BBX 7 10 0 -3
BITMAP
FE
C6
C6
FE
C0
C0
FC
00
18
18
ENDCHAR
STARTCHAR Etilde
ENCODING 7868
SWIDTH 500 0
DWIDTH 8 0
BBX 7 12 0 0
BITMAP
F6
DE
00
FE
C0
C0
C0
FC
C0
C0
C0
FE
ENDCHAR
STARTCHAR etilde
ENCODING 7869
SWIDTH 500 0
DWIDTH 8 0
BBX 7 10 0 0
BITMAP
F6
DE
00
FE
C6
C6
FE
C0
C0
FC
ENDCHAR
STARTCHAR Odotbelow
ENCODING 7884
SWIDTH 500 0
DWIDTH 8 0
BBX 7 13 0 -3
BITMAP
FE
C6
C6
C6
C6
C6
C6
C6
C6
FE
00
18
18
ENDCHAR
STARTCHAR odotbelow
ENCODING 7885
SWIDTH 500 0
DWIDTH 8 0
BBX 7 10 0 -3
BITMAP
FE
C6
C6
C6
C6
C6
FE
00
18
18
ENDCHAR
STARTCHAR Ytilde
ENCODING 7928
SWIDTH 500 0
DWIDTH 8 0
BBX 7 13 0 -1
BITMAP
F6
DE
00
C6
C6
C6
C6
C6
FE
06
06
06
7E
ENDCHAR
STARTCHAR ytilde
ENCODING 7929
SWIDTH 500 0
DWIDTH 8 0
BBX 7 13 0 -3
BITMAP
F6
DE
00
C6
C6
C6
C6
C6
C6
FE
06
06
7E
ENDCHAR
STARTCHAR uni2000
ENCODING 8192
SWIDTH 500 0
DWIDTH 8 0
BBX 0 0 0 0
BITMAP
ENDCHAR
STARTCHAR uni2001
ENCODING 8193
SWIDTH 500 0
DWIDTH 8 0
BBX 0 0 0 0
BITMAP
ENDCHAR
STARTCHAR enspace
ENCODING 8194
SWIDTH 500 0
DWIDTH 8 0
BBX 0 0 0 0
BITMAP
ENDCHAR
STARTCHAR uni2003
ENCODING 8195
SWIDTH 500 0
DWIDTH 8 0
BBX 0 0 0 0
BITMAP
ENDCHAR
STARTCHAR uni2004
ENCODING 8196
SWIDTH 500 0
DWIDTH 8 0
BBX 0 0 0 0
BITMAP
ENDCHAR
STARTCHAR uni2005
ENCODING 8197
SWIDTH 500 0
DWIDTH 8 0
BBX 0 0 0 0
BITMAP
ENDCHAR
STARTCHAR uni2006
ENCODING 8198
SWIDTH 500 0
DWIDTH 8 0
BBX 0 0 0 0
BITMAP
ENDCHAR
STARTCHAR uni2007
ENCODING 8199
SWIDTH 500 0
DWIDTH 8 0
BBX 0 0 0 0
BITMAP
ENDCHAR
STARTCHAR uni2008
ENCODING 8200
SWIDTH 500 0
DWIDTH 8 0
BBX 0 0 0 0
BITMAP
ENDCHAR
STARTCHAR uni2009
ENCODING 8201
SWIDTH 500 0
DWIDTH 8 0
BBX 0 0 0 0
BITMAP
ENDCHAR
STARTCHAR uni200A
ENCODING 8202
SWIDTH 500 0
DWIDTH 8 0
BBX 0 0 0 0
BITMAP
ENDCHAR
STARTCHAR hyphentwo
ENCODING 8208
SWIDTH 500 0
DWIDTH 8 0
BBX 5 1 1 4
BITMAP
F8
ENDCHAR
STARTCHAR uni2011
ENCODING 8209
SWIDTH 500 0
DWIDTH 8 0
BBX 5 1 1 4
BITMAP
F8
ENDCHAR
STARTCHAR figuredash
ENCODING 8210
SWIDTH 500 0
DWIDTH 8 0
BBX 7 1 0 4
BITMAP
FE
ENDCHAR
STARTCHAR endash
ENCODING 8211
SWIDTH 500 0
DWIDTH 8 0
BBX 7 1 0 4
BITMAP
FE
ENDCHAR
STARTCHAR emdash
ENCODING 8212
SWIDTH 500 0
DWIDTH 8 0
BBX 7 1 0 4
BITMAP
FE
ENDCHAR
STARTCHAR afii00208
ENCODING 8213
SWIDTH 500 0
DWIDTH 8 0
BBX 7 1 0 4
BITMAP
FE
ENDCHAR
STARTCHAR dblverticalbar
ENCODING 8214
SWIDTH 500 0
DWIDTH 8 0
BBX 5 10 1 0
BITMAP
D8
D8
D8
D8
D8
D8
D8
D8
D8
D8
ENDCHAR
STARTCHAR underscoredbl
ENCODING 8215
SWIDTH 500 0
DWIDTH 8 0
BBX 7 3 0 -4
BITMAP
FE
00
FE
ENDCHAR
STARTCHAR quoteleft
ENCODING 8216
SWIDTH 500 0
DWIDTH 8 0
BBX 3 3 2 8
BITMAP
C0
C0
E0
ENDCHAR
STARTCHAR quoteright
ENCODING 8217
SWIDTH 500 0
DWIDTH 8 0
BBX 3 3 2 8
BITMAP
E0
60
60
ENDCHAR
STARTCHAR quotesinglbase
ENCODING 8218
SWIDTH 500 0
DWIDTH 8 0
BBX 3 3 2 -1
BITMAP
E0
60
60
ENDCHAR
STARTCHAR quotedblleft
ENCODING 8220
SWIDTH 500 0
DWIDTH 8 0
BBX 7 3 0 8
BITMAP
CC
CC
EE
ENDCHAR
STARTCHAR quotedblright
ENCODING 8221
SWIDTH 500 0
DWIDTH 8 0
BBX 7 3 1 8
BITMAP
EE
66
66
ENDCHAR
STARTCHAR quotedblbase
ENCODING 8222
SWIDTH 500 0
DWIDTH 8 0
BBX 7 3 0 -1
BITMAP
EE
66
66
ENDCHAR
STARTCHAR dagger
ENCODING 8224
SWIDTH 500 0
DWIDTH 8 0
BBX 6 10 1 0
BITMAP
30
30
30
30
30
30
30
FC
30
30
ENDCHAR
STARTCHAR daggerdbl
ENCODING 8225
SWIDTH 500 0
DWIDTH 8 0
BBX 6 10 1 0
BITMAP
30
30
FC
30
30
30
30
FC
30
30
ENDCHAR
STARTCHAR bullet
ENCODING 8226
SWIDTH 500 0
DWIDTH 8 0
BBX 4 4 2 2
BITMAP
60
F0
F0
60
ENDCHAR
STARTCHAR ellipsis
ENCODING 8230
SWIDTH 500 0
DWIDTH 8 0
BBX 8 2 0 0
BITMAP
DB
DB
ENDCHAR
STARTCHAR perthousand
ENCODING 8240
SWIDTH 500 0
DWIDTH 8 0
BBX 8 10 0 0
BITMAP
EC
AC
F8
18
30
30
60
7F
D5
DF
ENDCHAR
STARTCHAR minute
ENCODING 8242
SWIDTH 500 0
DWIDTH 8 0
BBX 2 4 3 7
BITMAP
C0
C0
C0
C0
ENDCHAR
STARTCHAR second
ENCODING 8243
SWIDTH 500 0
DWIDTH 8 0
BBX 6 4 1 7
BITMAP
CC
CC
CC
CC
ENDCHAR
STARTCHAR guilsinglleft
ENCODING 8249
SWIDTH 500 0
DWIDTH 8 0
BBX 5 7 1 0
BITMAP
18
30
60
C0
60
30
18
ENDCHAR
STARTCHAR guilsinglright
ENCODING 8250
SWIDTH 500 0
DWIDTH 8 0
BBX 5 7 1 0
BITMAP
C0
60
30
18
30
60
C0
ENDCHAR
STARTCHAR exclamdbl
ENCODING 8252
SWIDTH 500 0
DWIDTH 8 0
BBX 6 10 1 0
BITMAP
CC
CC
CC
CC
CC
CC
CC
00
CC
CC
ENDCHAR
STARTCHAR overline
ENCODING 8254
SWIDTH 500 0
DWIDTH 8 0
BBX 7 1 0 11
BITMAP
FE
ENDCHAR
STARTCHAR nsuperior
ENCODING 8319
SWIDTH 500 0
DWIDTH 8 0
BBX 5 5 1 6
BITMAP
F0
D8
D8
D8
D8
ENDCHAR
STARTCHAR peseta
ENCODING 8359
SWIDTH 500 0
DWIDTH 8 0
BBX 8 10 0 0
BITMAP
F8
D8
D8
D8
FE
C6
CF
C6
C6
C7
ENDCHAR
STARTCHAR Euro
ENCODING 8364
SWIDTH 500 0
DWIDTH 8 0
BBX 8 9 0 0
BITMAP
1E
33
60
FC
60
FC
60
33
1E
ENDCHAR
STARTCHAR uni20AE
ENCODING 8366
SWIDTH 500 0
DWIDTH 8 0
BBX 8 10 0 0
BITMAP
FF
18
18
1E
78
1E
78
18
18
18
ENDCHAR
STARTCHAR afii61352
ENCODING 8470
SWIDTH 500 0
DWIDTH 8 0
BBX 7 10 0 0
BITMAP
B6
D6
96
90
90
90
90
96
90
96
ENDCHAR
STARTCHAR trademark
ENCODING 8482
SWIDTH 500 0
DWIDTH 8 0
BBX 8 4 0 6
BITMAP
FB
55
55
51
ENDCHAR
STARTCHAR Ohm
ENCODING 8486
SWIDTH 500 0
DWIDTH 8 0
BBX 7 10 0 0
BITMAP
7C
C6
C6
C6
C6
C6
C6
6C
6C
EE
ENDCHAR
STARTCHAR arrowleft
ENCODING 8592
SWIDTH 500 0
DWIDTH 8 0
BBX 7 6 0 1
BITMAP
20
60
FE
FE
60
20
ENDCHAR
STARTCHAR arrowup
ENCODING 8593
SWIDTH 500 0
DWIDTH 8 0
BBX 6 10 1 0
BITMAP
30
78
FC
30
30
30
30
30
30
30
ENDCHAR
STARTCHAR arrowright
ENCODING 8594
SWIDTH 500 0
DWIDTH 8 0
BBX 7 6 0 1
BITMAP
08
0C
FE
FE
0C
08
ENDCHAR
STARTCHAR arrowdown
ENCODING 8595
SWIDTH 500 0
DWIDTH 8 0
BBX 6 10 1 0
BITMAP
30
30
30
30
30
30
30
FC
78
30
ENDCHAR
STARTCHAR arrowboth
ENCODING 8596
SWIDTH 500 0
DWIDTH 8 0
BBX 8 6 0 1
BITMAP
24
66
FF
FF
66
24
ENDCHAR
STARTCHAR arrowupdn
ENCODING 8597
SWIDTH 500 0
DWIDTH 8 0
BBX 6 10 1 0
BITMAP
30
78
FC
30
30
30
30
FC
78
30
ENDCHAR
STARTCHAR arrowupdnbse
ENCODING 8616
SWIDTH 500 0
DWIDTH 8 0
BBX 6 11 1 -1
BITMAP
30
78
FC
30
30
30
30
FC
78
30
FC
ENDCHAR
STARTCHAR carriagereturn
ENCODING 8629
SWIDTH 500 0
DWIDTH 8 0
BBX 7 10 0 0
BITMAP
06
06
06
06
26
66
FE
FE
60
20
ENDCHAR
STARTCHAR arrowdblleft
ENCODING 8656
SWIDTH 500 0
DWIDTH 8 0
BBX 7 7 0 1
BITMAP
10
3E
7E
F0
7E
3E
10
ENDCHAR
STARTCHAR arrowdblup
ENCODING 8657
SWIDTH 500 0
DWIDTH 8 0
BBX 7 10 0 0
BITMAP
10
38
7C
FE
6C
6C
6C
6C
6C
6C
ENDCHAR
STARTCHAR arrowdblright
ENCODING 8658
SWIDTH 500 0
DWIDTH 8 0
BBX 7 7 0 1
BITMAP
10
F8
FC
1E
FC
F8
10
ENDCHAR
STARTCHAR arrowdbldown
ENCODING 8659
SWIDTH 500 0
DWIDTH 8 0
BBX 7 10 0 0
BITMAP
6C
6C
6C
6C
6C
6C
FE
7C
38
10
ENDCHAR
STARTCHAR arrowdblboth
ENCODING 8660
SWIDTH 500 0
DWIDTH 8 0
BBX 8 7 0 1
BITMAP
24
7E
FF
E7
FF
7E
24
ENDCHAR
STARTCHAR uni21D5
ENCODING 8661
SWIDTH 500 0
DWIDTH 8 0
BBX 7 10 0 0
BITMAP
10
38
7C
FE
6C
6C
FE
7C
38
10
ENDCHAR
STARTCHAR emptyset
ENCODING 8709
SWIDTH 500 0
DWIDTH 8 0
BBX 7 10 0 0
BITMAP
06
0C
7C
CE
DE
F6
E6
7C
60
C0
ENDCHAR
STARTCHAR increment
ENCODING 8710
SWIDTH 500 0
DWIDTH 8 0
BBX 7 10 0 0
BITMAP
10
10
38
38
6C
6C
6C
C6
C6
FE
ENDCHAR
STARTCHAR element
ENCODING 8712
SWIDTH 500 0
DWIDTH 8 0
BBX 7 7 0 0
BITMAP
3E
60
C0
F8
C0
60
3E
ENDCHAR
STARTCHAR minus
ENCODING 8722
SWIDTH 500 0
DWIDTH 8 0
BBX 7 1 0 4
BITMAP
FE
ENDCHAR
STARTCHAR bulletoperator
ENCODING 8729
SWIDTH 500 0
DWIDTH 8 0
BBX 3 3 2 3
BITMAP
E0
E0
E0
ENDCHAR
STARTCHAR radical
ENCODING 8730
SWIDTH 500 0
DWIDTH 8 0
BBX 7 11 0 0
BITMAP
0E
0C
0C
0C
0C
CC
CC
CC
6C
3C
1C
ENDCHAR
STARTCHAR infinity
ENCODING 8734
SWIDTH 500 0
DWIDTH 8 0
BBX 7 5 0 2
BITMAP
7C
D6
D6
D6
7C
ENDCHAR
STARTCHAR orthogonal
ENCODING 8735
SWIDTH 500 0
DWIDTH 8 0
BBX 7 6 0 2
BITMAP
C0
C0
C0
C0
C0
FE
ENDCHAR
STARTCHAR logicaland
ENCODING 8743
SWIDTH 500 0
DWIDTH 8 0
BBX 7 7 0 0
BITMAP
10
38
38
6C
6C
C6
C6
ENDCHAR
STARTCHAR logicalor
ENCODING 8744
SWIDTH 500 0
DWIDTH 8 0
BBX 7 7 0 0
BITMAP
C6
C6
6C
6C
38
38
10
ENDCHAR
STARTCHAR intersection
ENCODING 8745
SWIDTH 500 0
DWIDTH 8 0
BBX 7 9 0 0
BITMAP
7C
C6
C6
C6
C6
C6
C6
C6
C6
ENDCHAR
STARTCHAR union
ENCODING 8746
SWIDTH 500 0
DWIDTH 8 0
BBX 7 9 0 0
BITMAP
C6
C6
C6
C6
C6
C6
C6
C6
7C
ENDCHAR
STARTCHAR approxequal
ENCODING 8776
SWIDTH 500 0
DWIDTH 8 0
BBX 7 5 0 2
BITMAP
76
DC
00
76
DC
ENDCHAR
STARTCHAR notequal
ENCODING 8800
SWIDTH 500 0
DWIDTH 8 0
BBX 7 6 0 2
BITMAP
06
FE
18
30
FE
C0
ENDCHAR
STARTCHAR equivalence
ENCODING 8801
SWIDTH 500 0
DWIDTH 8 0
BBX 7 7 0 1
BITMAP
FE
00
00
FE
00
00
FE
ENDCHAR
STARTCHAR lessequal
ENCODING 8804
SWIDTH 500 0
DWIDTH 8 0
BBX 6 9 1 0
BITMAP
18
30
60
C0
60
30
18
00
FC
ENDCHAR
STARTCHAR greaterequal
ENCODING 8805
SWIDTH 500 0
DWIDTH 8 0
BBX 6 9 1 0
BITMAP
60
30
18
0C
18
30
60
00
FC
ENDCHAR
STARTCHAR house
ENCODING 8962
SWIDTH 500 0
DWIDTH 8 0
BBX 7 7 0 1
BITMAP
10
38
6C
C6
C6
C6
FE
ENDCHAR
STARTCHAR revlogicalnot
ENCODING 8976
SWIDTH 500 0
DWIDTH 8 0
BBX 7 4 0 3
BITMAP
FE
C0
C0
C0
ENDCHAR
STARTCHAR integraltp
ENCODING 8992
SWIDTH 500 0
DWIDTH 8 0
BBX 5 14 3 -4
BITMAP
70
D8
D8
C0
C0
C0
C0
C0
C0
C0
C0
C0
C0
C0
ENDCHAR
STARTCHAR integralbt
ENCODING 8993
SWIDTH 500 0
DWIDTH 8 0
BBX 5 12 0 0
BITMAP
18
18
18
18
18
18
18
18
18
D8
D8
70
ENDCHAR
STARTCHAR uni23BA
ENCODING 9146
SWIDTH 500 0
DWIDTH 8 0
BBX 8 2 0 10
BITMAP
FF
FF
ENDCHAR
STARTCHAR uni23BB
ENCODING 9147
SWIDTH 500 0
DWIDTH 8 0
BBX 8 2 0 6
BITMAP
FF
FF
ENDCHAR
STARTCHAR uni23BC
ENCODING 9148
SWIDTH 500 0
DWIDTH 8 0
BBX 8 2 0 0
BITMAP
FF
FF
ENDCHAR
STARTCHAR uni23BD
ENCODING 9149
SWIDTH 500 0
DWIDTH 8 0
BBX 8 2 0 -4
BITMAP
FF
FF
ENDCHAR
STARTCHAR uni2409
ENCODING 9225
SWIDTH 500 0
DWIDTH 8 0
BBX 8 13 0 -2
BITMAP
CC
CC
FC
CC
CC
CC
00
3F
0C
0C
0C
0C
0C
ENDCHAR
STARTCHAR uni240A
ENCODING 9226
SWIDTH 500 0
DWIDTH 8 0
BBX 8 13 0 -2
BITMAP
C0
C0
C0
C0
C0
F8
00
3F
30
3C
30
30
30
ENDCHAR
STARTCHAR uni240B
ENCODING 9227
SWIDTH 500 0
DWIDTH 8 0
BBX 8 13 0 -2
BITMAP
CC
CC
CC
CC
78
30
00
3F
0C
0C
0C
0C
0C
ENDCHAR
STARTCHAR uni240C
ENCODING 9228
SWIDTH 500 0
DWIDTH 8 0
BBX 8 13 0 -2
BITMAP
FC
C0
F0
C0
C0
C0
00
3F
30
3C
30
30
30
ENDCHAR
STARTCHAR uni240D
ENCODING 9229
SWIDTH 500 0
DWIDTH 8 0
BBX 8 13 0 -2
BITMAP
78
CC
C0
C0
CC
78
00
3E
33
33
3E
36
33
ENDCHAR
STARTCHAR uni2424
ENCODING 9252
SWIDTH 500 0
DWIDTH 8 0
BBX 8 13 0 -2
BITMAP
CC
EC
FC
DC
CC
CC
00
30
30
30
30
30
3F
ENDCHAR
STARTCHAR SF100000
ENCODING 9472
SWIDTH 500 0
DWIDTH 8 0
BBX 8 2 0 3
BITMAP
FF
FF
ENDCHAR
STARTCHAR SF110000
ENCODING 9474
SWIDTH 500 0
DWIDTH 8 0
BBX 8 16 0 -4
BITMAP
18
18
18
18
18
18
18
18
18
18
18
18
18
18
18
18
ENDCHAR
STARTCHAR SF010000
ENCODING 9484
SWIDTH 500 0
DWIDTH 8 0
BBX 5 9 3 -4
BITMAP
F8
F8
C0
C0
C0
C0
C0
C0
C0
ENDCHAR
STARTCHAR SF030000
ENCODING 9488
SWIDTH 500 0
DWIDTH 8 0
BBX 5 9 0 -4
BITMAP
F8
F8
18
18
18
18
18
18
18
ENDCHAR
STARTCHAR SF020000
ENCODING 9492
SWIDTH 500 0
DWIDTH 8 0
BBX 5 9 3 3
BITMAP
C0
C0
C0
C0
C0
C0
C0
F8
F8
ENDCHAR
STARTCHAR SF040000
ENCODING 9496
SWIDTH 500 0
DWIDTH 8 0
BBX 5 9 0 3
BITMAP
18
18
18
18
18
18
18
F8
F8
ENDCHAR
STARTCHAR SF080000
ENCODING 9500
SWIDTH 500 0
DWIDTH 8 0
BBX 8 16 0 -4
BITMAP
18
18
18
18
18
18
18
1F
1F
18
18
18
18
18
18
18
ENDCHAR
STARTCHAR SF090000
ENCODING 9508
SWIDTH 500 0
DWIDTH 8 0
BBX 8 16 0 -4
BITMAP
18
18
18
18
18
18
18
F8
F8
18
18
18
18
18
18
18
ENDCHAR
STARTCHAR SF060000
ENCODING 9516
SWIDTH 500 0
DWIDTH 8 0
BBX 8 9 0 -4
BITMAP
FF
FF
18
18
18
18
18
18
18
ENDCHAR
STARTCHAR SF070000
ENCODING 9524
SWIDTH 500 0
DWIDTH 8 0
BBX 8 9 0 3
BITMAP
18
18
18
18
18
18
18
FF
FF
ENDCHAR
STARTCHAR SF050000
ENCODING 9532
SWIDTH 500 0
DWIDTH 8 0
BBX 8 16 0 -4
BITMAP
18
18
18
18
18
18
18
FF
FF
18
18
18
18
18
18
18
ENDCHAR
STARTCHAR SF430000
ENCODING 9552
SWIDTH 500 0
DWIDTH 8 0
BBX 8 5 0 2
BITMAP
FF
FF
00
FF
FF
ENDCHAR
STARTCHAR SF240000
ENCODING 9553
SWIDTH 500 0
DWIDTH 8 0
BBX 8 16 0 -4
BITMAP
6C
6C
6C
6C
6C
6C
6C
6C
6C
6C
6C
6C
6C
6C
6C
6C
ENDCHAR
STARTCHAR SF510000
ENCODING 9554
SWIDTH 500 0
DWIDTH 8 0
BBX 5 11 3 -4
BITMAP
F8
F8
C0
F8
F8
C0
C0
C0
C0
C0
C0
ENDCHAR
STARTCHAR SF520000
ENCODING 9555
SWIDTH 500 0
DWIDTH 8 0
BBX 7 9 1 -4
BITMAP
FE
FE
D8
D8
D8
D8
D8
D8
D8
ENDCHAR
STARTCHAR SF390000
ENCODING 9556
SWIDTH 500 0
DWIDTH 8 0
BBX 7 11 1 -4
BITMAP
FE
FE
C0
DE
DE
D8
D8
D8
D8
D8
D8
ENDCHAR
STARTCHAR SF220000
ENCODING 9557
SWIDTH 500 0
DWIDTH 8 0
BBX 5 11 0 -4
BITMAP
F8
F8
18
F8
F8
18
18
18
18
18
18
ENDCHAR
STARTCHAR SF210000
ENCODING 9558
SWIDTH 500 0
DWIDTH 8 0
BBX 6 9 0 -4
BITMAP
FC
FC
6C
6C
6C
6C
6C
6C
6C
ENDCHAR
STARTCHAR SF250000
ENCODING 9559
SWIDTH 500 0
DWIDTH 8 0
BBX 6 11 0 -4
BITMAP
FC
FC
0C
EC
EC
6C
6C
6C
6C
6C
6C
ENDCHAR
STARTCHAR SF500000
ENCODING 9560
SWIDTH 500 0
DWIDTH 8 0
BBX 5 10 3 2
BITMAP
C0
C0
C0
C0
C0
F8
F8
C0
F8
F8
ENDCHAR
STARTCHAR SF490000
ENCODING 9561
SWIDTH 500 0
DWIDTH 8 0
BBX 7 9 1 3
BITMAP
D8
D8
D8
D8
D8
D8
D8
FE
FE
ENDCHAR
STARTCHAR SF380000
ENCODING 9562
SWIDTH 500 0
DWIDTH 8 0
BBX 7 10 1 2
BITMAP
D8
D8
D8
D8
D8
DE
DE
C0
FE
FE
ENDCHAR
STARTCHAR SF280000
ENCODING 9563
SWIDTH 500 0
DWIDTH 8 0
BBX 5 10 0 2
BITMAP
18
18
18
18
18
F8
F8
18
F8
F8
ENDCHAR
STARTCHAR SF270000
ENCODING 9564
SWIDTH 500 0
DWIDTH 8 0
BBX 6 9 0 3
BITMAP
6C
6C
6C
6C
6C
6C
6C
FC
FC
ENDCHAR
STARTCHAR SF260000
ENCODING 9565
SWIDTH 500 0
DWIDTH 8 0
BBX 6 10 0 2
BITMAP
6C
6C
6C
6C
6C
EC
EC
0C
FC
FC
ENDCHAR
STARTCHAR SF360000
ENCODING 9566
SWIDTH 500 0
DWIDTH 8 0
BBX 8 16 0 -4
BITMAP
18
18
18
18
18
1F
1F
18
1F
1F
18
18
18
18
18
18
ENDCHAR
STARTCHAR SF370000
ENCODING 9567
SWIDTH 500 0
DWIDTH 8 0
BBX 8 16 0 -4
BITMAP
6C
6C
6C
6C
6C
6C
6C
6F
6F
6C
6C
6C
6C
6C
6C
6C
ENDCHAR
STARTCHAR SF420000
ENCODING 9568
SWIDTH 500 0
DWIDTH 8 0
BBX 8 16 0 -4
BITMAP
6C
6C
6C
6C
6C
6F
6F
60
6F
6F
6C
6C
6C
6C
6C
6C
ENDCHAR
STARTCHAR SF190000
ENCODING 9569
SWIDTH 500 0
DWIDTH 8 0
BBX 8 16 0 -4
BITMAP
18
18
18
18
18
F8
F8
18
F8
F8
18
18
18
18
18
18
ENDCHAR
STARTCHAR SF200000
ENCODING 9570
SWIDTH 500 0
DWIDTH 8 0
BBX 8 16 0 -4
BITMAP
6C
6C
6C
6C
6C
6C
6C
EC
EC
6C
6C
6C
6C
6C
6C
6C
ENDCHAR
STARTCHAR SF230000
ENCODING 9571
SWIDTH 500 0
DWIDTH 8 0
BBX 8 16 0 -4
BITMAP
6C
6C
6C
6C
6C
EC
EC
0C
EC
EC
6C
6C
6C
6C
6C
6C
ENDCHAR
STARTCHAR SF470000
ENCODING 9572
SWIDTH 500 0
DWIDTH 8 0
BBX 8 11 0 -4
BITMAP
FF
FF
00
FF
FF
18
18
18
18
18
18
ENDCHAR
STARTCHAR SF480000
ENCODING 9573
SWIDTH 500 0
DWIDTH 8 0
BBX 8 9 0 -4
BITMAP
FF
FF
6C
6C
6C
6C
6C
6C
6C
ENDCHAR
STARTCHAR SF410000
ENCODING 9574
SWIDTH 500 0
DWIDTH 8 0
BBX 8 11 0 -4
BITMAP
FF
FF
00
EF
EF
6C
6C
6C
6C
6C
6C
ENDCHAR
STARTCHAR SF450000
ENCODING 9575
SWIDTH 500 0
DWIDTH 8 0
BBX 8 10 0 2
BITMAP
18
18
18
18
18
FF
FF
00
FF
FF
ENDCHAR
STARTCHAR SF460000
ENCODING 9576
SWIDTH 500 0
DWIDTH 8 0
BBX 8 9 0 3
BITMAP
6C
6C
6C
6C
6C
6C
6C
FF
FF
ENDCHAR
STARTCHAR SF400000
ENCODING 9577
SWIDTH 500 0
DWIDTH 8 0
BBX 8 10 0 2
BITMAP
6C
6C
6C
6C
6C
EF
EF
00
FF
FF
ENDCHAR
STARTCHAR SF540000
ENCODING 9578
SWIDTH 500 0
DWIDTH 8 0
BBX 8 16 0 -4
BITMAP
18
18
18
18
18
FF
FF
18
FF
FF
18
18
18
18
18
18
ENDCHAR
STARTCHAR SF530000
ENCODING 9579
SWIDTH 500 0
DWIDTH 8 0
BBX 8 16 0 -4
BITMAP
6C
6C
6C
6C
6C
6C
6C
FF
FF
6C
6C
6C
6C
6C
6C
6C
ENDCHAR
STARTCHAR SF440000
ENCODING 9580
SWIDTH 500 0
DWIDTH 8 0
BBX 8 16 0 -4
BITMAP
6C
6C
6C
6C
6C
EF
EF
00
EF
EF
6C
6C
6C
6C
6C
6C
ENDCHAR
STARTCHAR upblock
ENCODING 9600
SWIDTH 500 0
DWIDTH 8 0
BBX 8 8 0 4
BITMAP
FF
FF
FF
FF
FF
FF
FF
FF
ENDCHAR
STARTCHAR dnblock
ENCODING 9604
SWIDTH 500 0
DWIDTH 8 0
BBX 8 8 0 -4
BITMAP
FF
FF
FF
FF
FF
FF
FF
FF
ENDCHAR
STARTCHAR block
ENCODING 9608
SWIDTH 500 0
DWIDTH 8 0
BBX 8 16 0 -4
BITMAP
FF
FF
FF
FF
FF
FF
FF
FF
FF
FF
FF
FF
FF
FF
FF
FF
ENDCHAR
STARTCHAR lfblock
ENCODING 9612
SWIDTH 500 0
DWIDTH 8 0
BBX 8 16 0 -4
BITMAP
F0
F0
F0
F0
F0
F0
F0
F0
F0
F0
F0
F0
F0
F0
F0
F0
ENDCHAR
STARTCHAR rtblock
ENCODING 9616
SWIDTH 500 0
DWIDTH 8 0
BBX 8 16 0 -4
BITMAP
0F
0F
0F
0F
0F
0F
0F
0F
0F
0F
0F
0F
0F
0F
0F
0F
ENDCHAR
STARTCHAR ltshade
ENCODING 9617
SWIDTH 500 0
DWIDTH 8 0
BBX 8 16 0 -4
BITMAP
88
22
88
22
88
22
88
22
88
22
88
22
88
22
88
22
ENDCHAR
STARTCHAR shade
ENCODING 9618
SWIDTH 500 0
DWIDTH 8 0
BBX 8 16 0 -4
BITMAP
AA
55
AA
55
AA
55
AA
55
AA
55
AA
55
AA
55
AA
55
ENDCHAR
STARTCHAR dkshade
ENCODING 9619
SWIDTH 500 0
DWIDTH 8 0
BBX 8 16 0 -4
BITMAP
EE
BB
EE
BB
EE
BB
EE
BB
EE
BB
EE
BB
EE
BB
EE
BB
ENDCHAR
STARTCHAR filledbox
ENCODING 9632
SWIDTH 500 0
DWIDTH 8 0
BBX 5 6 1 1
BITMAP
F8
F8
F8
F8
F8
F8
ENDCHAR
STARTCHAR filledrect
ENCODING 9644
SWIDTH 500 0
DWIDTH 8 0
BBX 7 4 0 0
BITMAP
FE
FE
FE
FE
ENDCHAR
STARTCHAR uni25AE
ENCODING 9646
SWIDTH 500 0
DWIDTH 8 0
BBX 7 10 0 0
BITMAP
FE
FE
FE
FE
FE
FE
FE
FE
FE
FE
ENDCHAR
STARTCHAR triagup
ENCODING 9650
SWIDTH 500 0
DWIDTH 8 0
BBX 8 8 0 0
BITMAP
18
18
3C
3C
7E
7E
FF
FF
ENDCHAR
STARTCHAR uni25B6
ENCODING 9654
SWIDTH 500 0
DWIDTH 8 0
BBX 6 12 1 -2
BITMAP
80
C0
E0
F0
F8
FC
FC
F8
F0
E0
C0
80
ENDCHAR
STARTCHAR triagdn
ENCODING 9660
SWIDTH 500 0
DWIDTH 8 0
BBX 8 8 0 0
BITMAP
FF
FF
7E
7E
3C
3C
18
18
ENDCHAR
STARTCHAR uni25C0
ENCODING 9664
SWIDTH 500 0
DWIDTH 8 0
BBX 6 12 1 -2
BITMAP
04
0C
1C
3C
7C
FC
FC
7C
3C
1C
0C
04
ENDCHAR
STARTCHAR blackdiamond
ENCODING 9670
SWIDTH 500 0
DWIDTH 8 0
BBX 8 7 0 1
BITMAP
18
3C
7E
FF
7E
3C
18
ENDCHAR
STARTCHAR lozenge
ENCODING 9674
SWIDTH 500 0
DWIDTH 8 0
BBX 8 7 0 1
BITMAP
18
3C
66
C3
66
3C
18
ENDCHAR
STARTCHAR circle
ENCODING 9675
SWIDTH 500 0
DWIDTH 8 0
BBX 6 6 1 1
BITMAP
78
CC
84
84
CC
78
ENDCHAR
STARTCHAR invbullet
ENCODING 9688
SWIDTH 500 0
DWIDTH 8 0
BBX 8 16 0 -4
BITMAP
FF
FF
FF
FF
FF
FF
E7
C3
C3
E7
FF
FF
FF
FF
FF
FF
ENDCHAR
STARTCHAR invcircle
ENCODING 9689
SWIDTH 500 0
DWIDTH 8 0
BBX 8 16 0 -4
BITMAP
FF
FF
FF
FF
FF
C3
99
BD
BD
99
C3
FF
FF
FF
FF
FF
ENDCHAR
STARTCHAR smileface
ENCODING 9786
SWIDTH 500 0
DWIDTH 8 0
BBX 7 10 0 0
BITMAP
7C
82
AA
82
82
BA
92
82
82
7C
ENDCHAR
STARTCHAR invsmileface
ENCODING 9787
SWIDTH 500 0
DWIDTH 8 0
BBX 7 10 0 0
BITMAP
7C
FE
D6
FE
FE
C6
EE
FE
FE
7C
ENDCHAR
STARTCHAR sun
ENCODING 9788
SWIDTH 500 0
DWIDTH 8 0
BBX 8 9 0 0
BITMAP
18
18
DB
3C
E7
3C
DB
18
18
ENDCHAR
STARTCHAR female
ENCODING 9792
SWIDTH 500 0
DWIDTH 8 0
BBX 6 10 1 0
BITMAP
78
CC
CC
CC
CC
78
30
FC
30
30
ENDCHAR
STARTCHAR male
ENCODING 9794
SWIDTH 500 0
DWIDTH 8 0
BBX 7 10 0 0
BITMAP
3E
0E
1A
32
78
CC
CC
CC
CC
78
ENDCHAR
STARTCHAR spade
ENCODING 9824
SWIDTH 500 0
DWIDTH 8 0
BBX 8 10 0 0
BITMAP
18
18
3C
7E
FF
FF
7E
18
18
3C
ENDCHAR
STARTCHAR club
ENCODING 9827
SWIDTH 500 0
DWIDTH 8 0
BBX 8 10 0 0
BITMAP
18
3C
3C
18
5A
FF
FF
5A
18
3C
ENDCHAR
STARTCHAR heart
ENCODING 9829
SWIDTH 500 0
DWIDTH 8 0
BBX 7 8 0 0
BITMAP
6C
FE
FE
FE
FE
7C
38
10
ENDCHAR
STARTCHAR diamond
ENCODING 9830
SWIDTH 500 0
DWIDTH 8 0
BBX 8 7 0 1
BITMAP
18
3C
7E
FF
7E
3C
18
ENDCHAR
STARTCHAR musicalnote
ENCODING 9834
SWIDTH 500 0
DWIDTH 8 0
BBX 7 10 0 0
BITMAP
7E
66
7E
60
60
60
60
60
E0
C0
ENDCHAR
STARTCHAR musicalnotedbl
ENCODING 9835
SWIDTH 500 0
DWIDTH 8 0
BBX 7 11 0 -1
BITMAP
7E
66
7E
66
66
66
66
66
6E
EC
C0
ENDCHAR
STARTCHAR dotlessj
ENCODING 63166
SWIDTH 500 0
DWIDTH 8 0
BBX 6 10 1 -3
BITMAP
1C
0C
0C
0C
0C
0C
0C
0C
CC
FC
ENDCHAR
STARTCHAR uniFFFD
ENCODING 65533
SWIDTH 500 0
DWIDTH 8 0
BBX 7 10 0 0
BITMAP
FE
C6
C6
C6
C6
C6
C6
C6
C6
FE
ENDCHAR
ENDFONT
